<?xml version="1.0" encoding="UTF-8"?>
<svg version="1.1" xmlns="http://www.w3.org/2000/svg" width="173" height="173">
<path d="M0 0 C6.94545837 6.42003362 6.94545837 6.42003362 7.4375 10.75 C7.125 13 7.125 13 6.125 14 C3.8125 14.4375 3.8125 14.4375 1.125 14 C-0.27212274 12.04402816 -1.59427629 10.0340906 -2.875 8 C-8.43801034 2.04276059 -15.73995801 -1.95031716 -23.875 -3 C-24.03871094 -2.38898437 -24.20242187 -1.77796875 -24.37109375 -1.1484375 C-26.70817642 2.19025203 -30.16380518 2.47067675 -33.9375 3.375 C-41.47763062 5.37900829 -48.66741384 7.62673009 -53.4765625 14.18359375 C-53.93804687 14.78300781 -54.39953125 15.38242187 -54.875 16 C-55.535 16 -56.195 16 -56.875 16 C-57.30425781 17.10794922 -57.30425781 17.10794922 -57.7421875 18.23828125 C-58.875 21 -58.875 21 -59.9453125 23.04296875 C-64.63115122 32.57084081 -64.57278722 45.04170379 -61.3125 55.0625 C-56.69192218 65.59612496 -49.49560451 71.62951043 -39.4375 76.75 C-36.39567456 77.81730717 -33.78170911 78.3724848 -30.625 78.875 C-26.14896001 79.6776941 -26.14896001 79.6776941 -23.75 82.5 C-22.875 85 -22.875 85 -22.875 87 C-13.73598518 83.93482811 -5.88392401 80.50608769 0.69921875 73.26953125 C1.40498047 72.64111328 1.40498047 72.64111328 2.125 72 C4.8125 72.3125 4.8125 72.3125 7.125 73 C7.01128803 76.75249488 5.72527456 78.77909057 3.25 81.4375 C-6.56019025 90.66470763 -20.29415138 95.44797928 -33.6640625 95.140625 C-49.1256626 94.15720167 -61.46475673 87.2721303 -71.875 76 C-81.9716764 63.88775573 -85.8406737 50.42286188 -84.47265625 34.80859375 C-82.34612801 21.25718829 -75.17007292 8.9115953 -64.74609375 0.07421875 C-45.31427361 -13.96427988 -19.16074321 -15.85857257 0 0 Z " fill="#042B42" transform="translate(117.875,47)"/>
<path d="M0 0 C0.96292969 -0.25910156 0.96292969 -0.25910156 1.9453125 -0.5234375 C6.51086334 -1.58236754 11.1598869 1.53708054 15.0625 3.6875 C19.61874179 7.27432865 24.13800329 11.41400988 26 17 C25.38511719 17.40089844 24.77023438 17.80179688 24.13671875 18.21484375 C19.14687724 21.72444519 15.74397724 24.56107113 14.2421875 30.609375 C13.5738875 37.20614275 15.20008823 42.33895493 19.125 47.625 C20.06621248 48.76436247 21.01855597 49.8951039 22 51 C16.30424139 57.22973598 10.69227572 61.38378741 2.078125 61.95703125 C-5.21733342 62.10787719 -13.16155561 60.70319132 -19 56 C-26.72422137 47.05936581 -30.40612515 39.24508877 -30.2734375 27.3828125 C-29.57540704 18.74717855 -25.28977563 10.90789639 -19 5 C-12.67492661 0.75463824 -7.50301386 -2.03206625 0 0 Z M4 10 C4 11.32 4 12.64 4 14 C4.66 13.67 5.32 13.34 6 13 C5.67 12.01 5.34 11.02 5 10 C4.67 10 4.34 10 4 10 Z M-14 14 C-14.12375 14.639375 -14.2475 15.27875 -14.375 15.9375 C-14.58125 16.618125 -14.7875 17.29875 -15 18 C-15.99 18.495 -15.99 18.495 -17 19 C-16.34 19.66 -15.68 20.32 -15 21 C-15 20.34 -15 19.68 -15 19 C-13.68 18.67 -12.36 18.34 -11 18 C-11.66 18 -12.32 18 -13 18 C-13.33 16.68 -13.66 15.36 -14 14 Z M11 15 C11 15.99 11 16.98 11 18 C10.08476563 17.90460938 9.16953125 17.80921875 8.2265625 17.7109375 C7.03804687 17.60007812 5.84953125 17.48921875 4.625 17.375 C3.44164062 17.25898437 2.25828125 17.14296875 1.0390625 17.0234375 C-0.46527344 17.01183594 -0.46527344 17.01183594 -2 17 C-2.66 17.66 -3.32 18.32 -4 19 C1.28 19 6.56 19 12 19 C12.33 18.34 12.66 17.68 13 17 C12.34 16.34 11.68 15.68 11 15 Z M-10 18 C-10 18.33 -10 18.66 -10 19 C-8.35 19 -6.7 19 -5 19 C-5 18.67 -5 18.34 -5 18 C-6.65 18 -8.3 18 -10 18 Z M-17 21 C-16 23 -16 23 -16 23 Z M-18 27 C-19.62929157 28.62929157 -19.17075442 30.44694096 -19.1875 32.6875 C-19.13585495 37.84462697 -18.78810198 42.21189802 -15 46 C-14.67 44.68 -14.34 43.36 -14 42 C-14.66 41.67 -15.32 41.34 -16 41 C-16.37890625 38.85546875 -16.37890625 38.85546875 -16.5625 36.1875 C-16.79281125 33.00544462 -17.13286253 30.0743965 -18 27 Z M-25 41 C-25 41.33 -25 41.66 -25 42 C-23.02 42 -21.04 42 -19 42 C-19 41.67 -19 41.34 -19 41 C-20.98 41 -22.96 41 -25 41 Z M-11 42 C-11 42.66 -11 43.32 -11 44 C-4.78675502 44.73030908 0.84098757 45.23180249 7 44 C7 43.67 7 43.34 7 43 C0.96445452 42.30739642 -4.92406438 41.88748267 -11 42 Z M-15 46 C-14 48 -14 48 -14 48 Z M-12 51 C-11 53 -11 53 -11 53 Z " fill="#1A93A1" transform="translate(89,58)"/>
<path d="M0 0 C8.33586438 -0.52021739 15.70013666 3.82395273 22 9.0625 C28.82631329 15.47155698 28.82631329 15.47155698 29.3125 19.75 C29 22 29 22 28 23 C25.6875 23.4375 25.6875 23.4375 23 23 C21.60287726 21.04402816 20.28072371 19.0340906 19 17 C13.43698966 11.04276059 6.13504199 7.04968284 -2 6 C-2.16371094 6.61101563 -2.32742187 7.22203125 -2.49609375 7.8515625 C-4.83317642 11.19025203 -8.28880518 11.47067675 -12.0625 12.375 C-19.60263062 14.37900829 -26.79241384 16.62673009 -31.6015625 23.18359375 C-32.06304687 23.78300781 -32.52453125 24.38242187 -33 25 C-33.66 25 -34.32 25 -35 25 C-35.42925781 26.10794922 -35.42925781 26.10794922 -35.8671875 27.23828125 C-37 30 -37 30 -38.0703125 32.04296875 C-42.75615122 41.57084081 -42.69778722 54.04170379 -39.4375 64.0625 C-34.81692218 74.59612496 -27.62060451 80.62951043 -17.5625 85.75 C-14.52067456 86.81730717 -11.90670911 87.3724848 -8.75 87.875 C-4.27396001 88.6776941 -4.27396001 88.6776941 -1.875 91.5 C-1 94 -1 94 -1 96 C8.13901482 92.93482811 15.99107599 89.50608769 22.57421875 82.26953125 C23.27998047 81.64111328 23.27998047 81.64111328 24 81 C26.6875 81.3125 26.6875 81.3125 29 82 C28.88628803 85.75249488 27.60027456 87.77909057 25.125 90.4375 C15.31480975 99.66470763 1.58084862 104.44797928 -11.7890625 104.140625 C-27.2506626 103.15720167 -39.58975673 96.2721303 -50 85 C-58.54789583 74.74571452 -64.12951085 61.55413021 -63 48 C-62.34 47.34 -61.68 46.68 -61 46 C-59.84475471 52.00054591 -58.79969635 57.92906137 -58.34375 64.02734375 C-58.08822738 66.07329663 -58.08822738 66.07329663 -56.96875 68.00390625 C-56 70 -56 70 -56 74 C-54.02 74.33 -52.04 74.66 -50 75 C-49.979375 75.99 -49.95875 76.98 -49.9375 78 C-49.19442272 83.21215635 -45.85589386 86.63299248 -42 90 C-38.65223753 91.54512114 -36.65527268 92 -33 92 C-32.67 90.68 -32.34 89.36 -32 88 C-31.34 88 -30.68 88 -30 88 C-30.33 87.195625 -30.66 86.39125 -31 85.5625 C-32 83 -32 83 -32 82 C-35.465 81.505 -35.465 81.505 -39 81 C-39.33 80.01 -39.66 79.02 -40 78 C-39.34 77.01 -38.68 76.02 -38 75 C-38.71745356 72.53770003 -38.71745356 72.53770003 -40 70 C-42.96900598 62.9486108 -44.38953862 56.80735264 -44.375 49.1875 C-44.3747583 48.00099854 -44.3747583 48.00099854 -44.37451172 46.79052734 C-44.25250298 40.5295525 -43.03742092 35.52056795 -40 30 C-39.3314898 28.66759003 -38.66427182 27.33452807 -38 26 C-37.34 26 -36.68 26 -36 26 C-35.773125 25.443125 -35.54625 24.88625 -35.3125 24.3125 C-32.00085519 18.47769725 -27.00447173 15.59555532 -21.1875 12.75 C-20.51396484 12.399375 -19.84042969 12.04875 -19.14648438 11.6875 C-15.60009082 9.92278742 -12.55461947 8.80109297 -8.59765625 8.39453125 C-4.94213171 8.4108054 -4.94213171 8.4108054 -3.25 5.9375 C-2.63125 4.9784375 -2.63125 4.9784375 -2 4 C-0.68 4 0.64 4 2 4 C2 3.34 2 2.68 2 2 C1.34 1.34 0.68 0.68 0 0 Z " fill="#041F34" transform="translate(96,38)"/>
<path d="M0 0 C0.66 0 1.32 0 2 0 C2.00386719 1.051875 2.00386719 1.051875 2.0078125 2.125 C2.31307595 9.61413004 4.1034208 13.4496162 9 19 C9.495 19.99 9.495 19.99 10 21 C4.30424139 27.22973598 -1.30772428 31.38378741 -9.921875 31.95703125 C-17.21733342 32.10787719 -25.16155561 30.70319132 -31 26 C-41 14.42519685 -41 14.42519685 -41 8 C-40.360625 8.33 -39.72125 8.66 -39.0625 9 C-37.23205433 10.07271225 -37.23205433 10.07271225 -36 10 C-34 10 -32 10 -30 10 C-29.34 11.32 -28.68 12.64 -28 14 C-27.90530389 11.73292738 -27.90530389 11.73292738 -29 8.625 C-30 5 -30 5 -30 1 C-29.34 1 -28.68 1 -28 1 C-27.855625 2.11375 -27.71125 3.2275 -27.5625 4.375 C-27.21627965 7.82142047 -27.21627965 7.82142047 -26 10 C-25.01 9.67 -24.02 9.34 -23 9 C-21.95779297 9.21462891 -21.95779297 9.21462891 -20.89453125 9.43359375 C-16.81704193 10.23148302 -12.83072226 10.10501136 -8.6875 10.0625 C-7.85154297 10.05798828 -7.01558594 10.05347656 -6.15429688 10.04882812 C-4.10283351 10.03710548 -2.05140727 10.01917203 0 10 C0 6.7 0 3.4 0 0 Z M-23 12 C-23 12.66 -23 13.32 -23 14 C-16.78675502 14.73030908 -11.15901243 15.23180249 -5 14 C-5 13.67 -5 13.34 -5 13 C-11.03554548 12.30739642 -16.92406438 11.88748267 -23 12 Z M-27 16 C-26 18 -26 18 -26 18 Z M-24 21 C-23 23 -23 23 -23 23 Z " fill="#116185" transform="translate(101,88)"/>
<path d="M0 0 C3.69222555 3.17941644 6.71284381 6.27487234 7.703125 11.18359375 C7.95676513 16.55532938 6.82729347 19.78010488 3.25 23.9375 C-0.02175915 27.30014135 -2.88618308 28.72501359 -7.62890625 29.1015625 C-12.70390993 28.70902078 -16.49090508 26.06745698 -20.1875 22.75 C-22.71717785 18.19657988 -23.51890928 13.81079259 -22.15625 8.71875 C-20.29155183 4.41065424 -17.99665843 1.6153186 -13.74609375 -0.44140625 C-9.01926115 -1.91218195 -4.59823563 -1.77659104 0 0 Z M-14.375 5.4375 C-14.82875 5.9325 -15.2825 6.4275 -15.75 6.9375 C-14.76 8.4225 -14.76 8.4225 -13.75 9.9375 C-12.43 9.9375 -11.11 9.9375 -9.75 9.9375 C-10.08 7.9575 -10.41 5.9775 -10.75 3.9375 C-12.87364481 3.71140663 -12.87364481 3.71140663 -14.375 5.4375 Z M-16.75 6.9375 C-15.75 8.9375 -15.75 8.9375 -15.75 8.9375 Z M-17.75 8.9375 C-16.75 10.9375 -16.75 10.9375 -16.75 10.9375 Z " fill="#07233A" transform="translate(128.75,79.0625)"/>
<path d="M0 0 C3 1 3 1 4 3 C3 5 3 5 0.5625 5.9375 C-2.29863959 6.84547289 -2.29863959 6.84547289 -4 10 C-5.890625 10.484375 -5.890625 10.484375 -8.25 10.75 C-14.45897646 11.79238291 -19.49568183 14.52832853 -24.99609375 17.44140625 C-28 19 -28 19 -31 20 C-31 20.66 -31 21.32 -31 22 C-32.32 21.67 -33.64 21.34 -35 21 C-35.66 22.32 -36.32 23.64 -37 25 C-37.4125 24.071875 -37.825 23.14375 -38.25 22.1875 C-39.93441786 19.11945319 -41.08454083 17.80959535 -44 16 C-41.50385948 9.99891606 -35.8959268 7.25239945 -30.13671875 4.76171875 C-22.80455996 2.03324288 -16.59268342 0.85894454 -8.75 1 C-6.16031188 1.0455931 -3.59104894 1.04732509 -1 1 C-0.67 0.67 -0.34 0.34 0 0 Z " fill="#063A4D" transform="translate(95,37)"/>
<path d="M0 0 C-0.33 0.99 -0.66 1.98 -1 3 C-1.66 3 -2.32 3 -3 3 C-3.66 5.31 -4.32 7.62 -5 10 C-5.66 10 -6.32 10 -7 10 C-7.103125 10.94875 -7.20625 11.8975 -7.3125 12.875 C-8 16 -8 16 -11 18 C-14 18.125 -14 18.125 -17 18 C-17.99 18 -18.98 18 -20 18 C-23.33333333 18 -26.66666667 18 -30 18 C-30.24809955 15.3755252 -30.4741699 12.75232855 -30.6875 10.125 C-30.76033203 9.37863281 -30.83316406 8.63226563 -30.90820312 7.86328125 C-31.07421875 5.6953125 -31.07421875 5.6953125 -31 2 C-27.70331746 -0.19778836 -26.45473085 -0.29808098 -22.59765625 -0.44921875 C-21.54255859 -0.49240234 -20.48746094 -0.53558594 -19.40039062 -0.58007812 C-18.29888672 -0.61552734 -17.19738281 -0.65097656 -16.0625 -0.6875 C-14.96486328 -0.73455078 -13.86722656 -0.78160156 -12.73632812 -0.83007812 C-3.81957534 -1.16194019 -3.81957534 -1.16194019 0 0 Z " fill="#0AA1C4" transform="translate(103,79)"/>
<path d="M0 0 C4.12975701 1.45562408 7.18410395 4.01091234 10.44921875 6.86328125 C11.27421875 7.54390625 12.09921875 8.22453125 12.94921875 8.92578125 C14.84398109 11.37318261 14.78490775 12.84208022 14.44921875 15.86328125 C11.63671875 17.42578125 11.63671875 17.42578125 8.44921875 18.86328125 C7.45921875 18.53328125 6.46921875 18.20328125 5.44921875 17.86328125 C5.44921875 15.88328125 5.44921875 13.90328125 5.44921875 11.86328125 C4.78921875 11.86328125 4.12921875 11.86328125 3.44921875 11.86328125 C2.16015625 10.33203125 2.16015625 10.33203125 0.82421875 8.36328125 C0.37820312 7.71359375 -0.0678125 7.06390625 -0.52734375 6.39453125 C-1.03394531 5.6365625 -1.03394531 5.6365625 -1.55078125 4.86328125 C-1.55078125 8.06723541 -0.80743103 9.95727864 0.44921875 12.86328125 C-1.20078125 13.52328125 -2.85078125 14.18328125 -4.55078125 14.86328125 C-4.22078125 13.54328125 -3.89078125 12.22328125 -3.55078125 10.86328125 C-4.54078125 12.34828125 -4.54078125 12.34828125 -5.55078125 13.86328125 C-6.21078125 13.86328125 -6.87078125 13.86328125 -7.55078125 13.86328125 C-7.88078125 14.52328125 -8.21078125 15.18328125 -8.55078125 15.86328125 C-8.88078125 13.55328125 -9.21078125 11.24328125 -9.55078125 8.86328125 C-10.21078125 11.17328125 -10.87078125 13.48328125 -11.55078125 15.86328125 C-14.19078125 15.86328125 -16.83078125 15.86328125 -19.55078125 15.86328125 C-19.23770549 11.40952606 -18.67546141 8.0177261 -15.484375 4.7421875 C-9.79306747 0.34809613 -7.07116835 -1.67385145 0 0 Z " fill="#22ADB2" transform="translate(97.55078125,58.13671875)"/>
<path d="M0 0 C0.66 0 1.32 0 2 0 C2.00386719 1.051875 2.00386719 1.051875 2.0078125 2.125 C2.31307595 9.61413004 4.1034208 13.4496162 9 19 C9.33 19.66 9.66 20.32 10 21 C3.5254856 28.08150013 -2.31210947 31.54588013 -12 32 C-12.33 27.05 -12.66 22.1 -13 17 C-12.01 17.33 -11.02 17.66 -10 18 C-10 19.32 -10 20.64 -10 22 C-6.96707046 20.85916824 -6.96707046 20.85916824 -4 19 C-3.26377497 16.44577662 -3.26377497 16.44577662 -3 14 C-4.89559964 13.83069605 -6.79149231 13.66467136 -8.6875 13.5 C-10.27111328 13.36078125 -10.27111328 13.36078125 -11.88671875 13.21875 C-14.60636025 13.0276585 -17.27539856 12.95956065 -20 13 C-16.18384532 10.52954197 -12.15255752 10.56168088 -7.75 10.375 C-7.00492188 10.33632812 -6.25984375 10.29765625 -5.4921875 10.2578125 C-3.6618476 10.16394892 -1.83095857 10.08090282 0 10 C0 6.7 0 3.4 0 0 Z " fill="#105F73" transform="translate(101,88)"/>
<path d="M0 0 C2.36458739 0.91532415 4.69816266 1.85502301 6.984375 2.953125 C11.13847803 4.92706048 14.81399449 6.23836777 19.375 6.9375 C23.7357523 7.68912035 23.7357523 7.68912035 26.125 10.5 C27 13 27 13 27 15 C36.13901482 11.93482811 43.99107599 8.50608769 50.57421875 1.26953125 C51.04472656 0.85058594 51.51523438 0.43164062 52 0 C54.6875 0.3125 54.6875 0.3125 57 1 C56.88628803 4.75249488 55.60027456 6.77909057 53.125 9.4375 C45.86242372 16.26848876 35.49732857 21.65803534 25.4375 22.1875 C24.2309375 22.0946875 24.2309375 22.0946875 23 22 C23.20625 21.21625 23.4125 20.4325 23.625 19.625 C23.74875 18.75875 23.8725 17.8925 24 17 C23.34 16.34 22.68 15.68 22 15 C22.375 12.875 22.375 12.875 23 11 C21.10454608 10.51933465 19.20861961 10.04053257 17.3125 9.5625 C16.25675781 9.29566406 15.20101562 9.02882812 14.11328125 8.75390625 C11.4171683 8.10102068 8.7242424 7.52058807 6 7 C6 6.01 6 5.02 6 4 C3.03 3.505 3.03 3.505 0 3 C0 2.01 0 1.02 0 0 Z " fill="#0D1F30" transform="translate(68,119)"/>
<path d="M0 0 C8.33586438 -0.52021739 15.70013666 3.82395273 22 9.0625 C28.82631329 15.47155698 28.82631329 15.47155698 29.3125 19.75 C29 22 29 22 28 23 C25.6875 23.4375 25.6875 23.4375 23 23 C21.0625 20.4375 21.0625 20.4375 20.09765625 18.7890625 C15.53796852 11.35725831 10.47444761 7.1186119 2 5 C2 4.01 2 3.02 2 2 C1.34 1.34 0.68 0.68 0 0 Z " fill="#0E3242" transform="translate(96,38)"/>
<path d="M0 0 C0.66 0 1.32 0 2 0 C2.144375 1.11375 2.28875 2.2275 2.4375 3.375 C2.78372035 6.82142047 2.78372035 6.82142047 4 9 C4.99 8.67 5.98 8.34 7 8 C9.35188447 8.59793673 11.68925595 9.25881795 14 10 C14 10.33 14 10.66 14 11 C11.69 11 9.38 11 7 11 C7 11.66 7 12.32 7 13 C13.6 13 20.2 13 27 13 C27 14.65 27 16.3 27 18 C24.6167054 19.81883009 23.04181663 21 20 21 C19.67 19.68 19.34 18.36 19 17 C17.68 17 16.36 17 15 17 C15 18.98 15 20.96 15 23 C12 24 12 24 9 23 C7.04457812 20.01540871 7 18.73585209 7 15 C6.34 15 5.68 15 5 15 C4.67 14.01 4.34 13.02 4 12 C3.01 11.34 2.02 10.68 1 10 C0.48828125 7.6171875 0.48828125 7.6171875 0.3125 4.875 C0.24675781 3.96492188 0.18101563 3.05484375 0.11328125 2.1171875 C0.07589844 1.41851562 0.03851563 0.71984375 0 0 Z " fill="#146F8F" transform="translate(71,89)"/>
<path d="M0 0 C4.875 4.75 4.875 4.75 6 7 C-0.4745144 14.08150013 -6.31210947 17.54588013 -16 18 C-16.33 13.05 -16.66 8.1 -17 3 C-16.01 3.33 -15.02 3.66 -14 4 C-14 5.32 -14 6.64 -14 8 C-11.69 7.01 -9.38 6.02 -7 5 C-7 5.99 -7 6.98 -7 8 C-6.34 8 -5.68 8 -5 8 C-5.50603992 10.16874252 -5.99983813 11.99967627 -7 14 C-5.7035649 13.23721377 -4.41300852 12.46443041 -3.125 11.6875 C-2.04605469 11.04361328 -2.04605469 11.04361328 -0.9453125 10.38671875 C1.26846333 8.98247625 1.26846333 8.98247625 3 6 C2.505 5.566875 2.01 5.13375 1.5 4.6875 C0 3 0 3 0 0 Z " fill="#0F4B65" transform="translate(105,102)"/>
<path d="M0 0 C3.80398183 -0.56655049 5.93400926 -0.60096122 9.328125 1.3125 C14.27970013 4.98519149 17.3843512 8.42753082 20 14 C17.1875 15.5625 17.1875 15.5625 14 17 C13.01 16.67 12.02 16.34 11 16 C11 14.02 11 12.04 11 10 C10.34 10 9.68 10 9 10 C7.7109375 8.46875 7.7109375 8.46875 6.375 6.5 C5.92898437 5.8503125 5.48296875 5.200625 5.0234375 4.53125 C4.51683594 3.77328125 4.51683594 3.77328125 4 3 C3.54625 3.495 3.0925 3.99 2.625 4.5 C1 6 1 6 -1 6 C-0.67 4.02 -0.34 2.04 0 0 Z " fill="#1FBDCF" transform="translate(92,60)"/>
<path d="M0 0 C0.66 0 1.32 0 2 0 C2 0.99 2 1.98 2 3 C2.66 3 3.32 3 4 3 C5.25664978 5.90600261 6 7.79604584 6 11 C7.98 11 9.96 11 12 11 C12 9.02 12 7.04 12 5 C12.66 5 13.32 5 14 5 C14 9.29 14 13.58 14 18 C9.95269358 19.01182661 9.12580422 19.00430574 5.4375 17.6875 C4.67308594 17.42324219 3.90867187 17.15898438 3.12109375 16.88671875 C1 16 1 16 -2 14 C-1.67 13.34 -1.34 12.68 -1 12 C-0.01 12.33 0.98 12.66 2 13 C1.67 11.906875 1.34 10.81375 1 9.6875 C0.05114017 6.18857937 0 3.58289855 0 0 Z M3 8 C4 10 4 10 4 10 Z " fill="#0D536E" transform="translate(74,101)"/>
<path d="M0 0 C4.7717825 1.12277235 7.10973909 3.85004196 9.82421875 7.71484375 C11.7820394 11.51991046 11.89986982 14.85444588 11 19 C8.78341426 23.3510757 6.1692059 26.44162365 2 29 C-3.83020572 30.52923429 -6.98008619 30.06153529 -12.23828125 27.203125 C-14.08512428 25.94186635 -15.56487733 24.71766245 -17 23 C-16.6875 20.8125 -16.6875 20.8125 -16 19 C-15.34 19 -14.68 19 -14 19 C-13.608125 19.94875 -13.21625 20.8975 -12.8125 21.875 C-11.28412087 25.06077608 -11.28412087 25.06077608 -8.75 26.4375 C-4.00506508 27.40805487 -0.31528286 26.69961854 3.9375 24.4375 C4.618125 23.963125 5.29875 23.48875 6 23 C5.67 22.01 5.34 21.02 5 20 C5.49628906 19.61972656 5.99257812 19.23945312 6.50390625 18.84765625 C8.59248554 16.2682881 8.245152 14.6916782 7.9375 11.4375 C7.86402344 10.46683594 7.79054687 9.49617188 7.71484375 8.49609375 C7.25530916 5.87032245 7.25530916 5.87032245 5.08203125 4.73046875 C4.39496094 4.48941406 3.70789063 4.24835938 3 4 C1 3 1 3 -1 2 C-0.67 1.34 -0.34 0.68 0 0 Z " fill="#05101C" transform="translate(125,78)"/>
<path d="M0 0 C0.33 0 0.66 0 1 0 C2.15524529 6.00054591 3.20030365 11.92906137 3.65625 18.02734375 C3.91177262 20.07329663 3.91177262 20.07329663 5.03125 22.00390625 C6 24 6 24 6 28 C7.98 28.33 9.96 28.66 12 29 C12.020625 29.99 12.04125 30.98 12.0625 32 C12.79671503 37.25655397 16.39431284 40.37154008 20 44 C20.51949219 44.53367188 21.03898437 45.06734375 21.57421875 45.6171875 C22.70090744 46.76001786 23.84788983 47.88280226 25 49 C13.9496666 43.94140293 6.36398954 33.01829984 2 22 C-2.85074627 5.70149254 -2.85074627 5.70149254 0 0 Z " fill="#03101F" transform="translate(34,84)"/>
<path d="M0 0 C-0.28073073 2.14729141 -0.57488499 4.29283193 -0.875 6.4375 C-1.03742188 7.63246094 -1.19984375 8.82742187 -1.3671875 10.05859375 C-1.68042969 11.51458984 -1.68042969 11.51458984 -2 13 C-2.99 13.495 -2.99 13.495 -4 14 C-4 13.01 -4 12.02 -4 11 C-4.99 11.33 -5.98 11.66 -7 12 C-7.66 11.67 -8.32 11.34 -9 11 C-8.98839844 10.37351562 -8.97679687 9.74703125 -8.96484375 9.1015625 C-8.95582031 8.28429687 -8.94679687 7.46703125 -8.9375 6.625 C-8.92009766 5.40683594 -8.92009766 5.40683594 -8.90234375 4.1640625 C-8.85533666 1.95062858 -8.85533666 1.95062858 -10 0 C-6.7169902 -1.6415049 -3.57454967 -0.51888624 0 0 Z " fill="#10A2C3" transform="translate(70,78)"/>
<path d="M0 0 C0.66 0.66 1.32 1.32 2 2 C-0.99634276 3.49817138 -3.73175099 3.01418391 -7.0625 2.9375 C-19.33157549 2.84170454 -30.38281003 5.88273874 -40 14 C-40.309375 14.680625 -40.61875 15.36125 -40.9375 16.0625 C-42.41003499 18.74771086 -44.159632 19.10304168 -47 20 C-42.73210325 10.39723232 -32.19879037 5.85453277 -23 2 C-15.69084623 -0.41854868 -7.6312673 -0.75425316 0 0 Z " fill="#072631" transform="translate(93,36)"/>
<path d="M0 0 C-1.61594832 2.04119788 -3.2856382 4.04072937 -5 6 C-5.66 6 -6.32 6 -7 6 C-7.66 7.98 -8.32 9.96 -9 12 C-11.31 12.33 -13.62 12.66 -16 13 C-16 8.63542246 -15.63797501 8.14527789 -13 5 C-12.34 4.01 -11.68 3.02 -11 2 C-10.01 2.33 -9.02 2.66 -8 3 C-8 2.34 -8 1.68 -8 1 C-2.25 -1.125 -2.25 -1.125 0 0 Z " fill="#1BB8CA" transform="translate(82,61)"/>
<path d="M0 0 C1.05078125 1.8515625 1.05078125 1.8515625 2 4 C1.1875 6.375 1.1875 6.375 0 9 C-0.37593066 10.9924325 -0.71979545 12.9918674 -1 15 C-3.64 15 -6.28 15 -9 15 C-8.41554702 9.63257464 -7.61765003 6.01161124 -3.375 2.4375 C-2.26645085 1.60269462 -1.14657651 0.78175671 0 0 Z " fill="#1FB2C6" transform="translate(87,59)"/>
<path d="M0 0 C0.99 1.32 1.98 2.64 3 4 C0.90469426 6.17290966 -1.12107013 8.0885879 -3.5625 9.875 C-6.35828647 12.31235231 -7.54117682 14.62167264 -9 18 C-9.66 18 -10.32 18 -11 18 C-11 21.3 -11 24.6 -11 28 C-16.75 29.125 -16.75 29.125 -19 28 C-17.71937515 26.2925002 -16.38232443 24.62626404 -15 23 C-14.34 23 -13.68 23 -13 23 C-12.773125 21.824375 -12.54625 20.64875 -12.3125 19.4375 C-11.17264799 14.91822759 -9.29267212 11.33019544 -6 8 C-5.0925 7.649375 -4.185 7.29875 -3.25 6.9375 C-2.5075 6.628125 -1.765 6.31875 -1 6 C-0.10169161 2.94727535 -0.10169161 2.94727535 0 0 Z " fill="#0A7F9E" transform="translate(112,70)"/>
<path d="M0 0 C-2.33333333 2.33333333 -4.66666667 4.66666667 -7 7 C-7.71927295 9.31765729 -8.3909893 11.65095874 -9 14 C-9.33 12.68 -9.66 11.36 -10 10 C-10.99 11.98 -11.98 13.96 -13 16 C-14.32 15.67 -15.64 15.34 -17 15 C-16.34 14.67 -15.68 14.34 -15 14 C-14.27840576 12.35636866 -13.60648579 10.68949614 -13 9 C-12.34 9 -11.68 9 -11 9 C-10.690625 8.38125 -10.38125 7.7625 -10.0625 7.125 C-9.375 5.75 -8.6875 4.375 -8 3 C-9.98 3.33 -11.96 3.66 -14 4 C-14 4.66 -14 5.32 -14 6 C-14.99 5.67 -15.98 5.34 -17 5 C-7.375 -1.71511628 -7.375 -1.71511628 0 0 Z " fill="#15A5B6" transform="translate(88,58)"/>
<path d="M0 0 C0.66 0.66 1.32 1.32 2 2 C-5.5433806 10.5160228 -14.80478651 16.46155043 -26 19 C-29.5625 19.1875 -29.5625 19.1875 -32 19 C-32 18.34 -32 17.68 -32 17 C-31.18917969 16.85304687 -30.37835938 16.70609375 -29.54296875 16.5546875 C-21.41957645 14.90920408 -15.07692839 12.24143121 -8 8 C-6.67346834 7.31990001 -5.34250497 6.64799894 -4 6 C-4 5.01 -4 4.02 -4 3 C-3.01 2.67 -2.02 2.34 -1 2 C-0.67 1.34 -0.34 0.68 0 0 Z " fill="#000F1B" transform="translate(123,122)"/>
<path d="M0 0 C1.65 0 3.3 0 5 0 C5 1.32 5 2.64 5 4 C5.66 4 6.32 4 7 4 C7.33 5.32 7.66 6.64 8 8 C9.32 8 10.64 8 12 8 C12.33 7.34 12.66 6.68 13 6 C13.99 7.485 13.99 7.485 15 9 C13.92456217 9.98783194 12.83926783 10.96493943 11.75 11.9375 C11.14671875 12.48277344 10.5434375 13.02804688 9.921875 13.58984375 C7.91532695 15.06212799 6.42997551 15.57529189 4 16 C4.66 14.02 5.32 12.04 6 10 C5.34 10 4.68 10 4 10 C4 7.36 4 4.72 4 2 C2.68 1.34 1.36 0.68 0 0 Z " fill="#0E4866" transform="translate(94,100)"/>
<path d="M0 0 C0.66 0.33 1.32 0.66 2 1 C1.67 3.97 1.34 6.94 1 10 C2.98 9.67 4.96 9.34 7 9 C7 11.64 7 14.28 7 17 C4.6875 17.625 4.6875 17.625 2 18 C1.01 17.34 0.02 16.68 -1 16 C-1.328125 13.06640625 -1.328125 13.06640625 -1.25 9.5625 C-1.23453125 8.40878906 -1.2190625 7.25507812 -1.203125 6.06640625 C-1 3 -1 3 0 0 Z " fill="#0F93B9" transform="translate(60,79)"/>
<path d="M0 0 C0.66 0.33 1.32 0.66 2 1 C0.46819108 7.41367149 -0.81844796 11.77294439 -6 16 C-6.33 16.33 -6.66 16.66 -7 17 C-12.03761016 17.31718286 -17.09961113 17.30677037 -22 16 C-22 15.34 -22 14.68 -22 14 C-13 14 -13 14 -9.5 14.0625 C-5.96668212 13.39745867 -5.96668212 13.39745867 -4.73046875 11.0703125 C-3.71100408 8.74119847 -2.84948965 6.3954803 -2 4 C-1.35261814 2.65719735 -0.69192659 1.32040139 0 0 Z " fill="#088FB2" transform="translate(100,82)"/>
<path d="M0 0 C2.05078125 0.03255208 4.1015625 0.06510417 6.15234375 0.09765625 C4.05411117 2.35131347 2.18480139 4.07833623 -0.47265625 5.66015625 C-3.10509229 7.02383364 -3.10509229 7.02383364 -4.84765625 10.09765625 C-5.23265516 11.75315156 -5.5755876 13.41989955 -5.84765625 15.09765625 C-6.83765625 14.43765625 -7.82765625 13.77765625 -8.84765625 13.09765625 C-8.58892523 8.69922891 -8.28658736 6.60242703 -5.34765625 3.22265625 C-4.11015625 2.17078125 -4.11015625 2.17078125 -2.84765625 1.09765625 C-1.84765625 0.09765625 -1.84765625 0.09765625 0 0 Z " fill="#081323" transform="translate(115.84765625,78.90234375)"/>
<path d="M0 0 C3.96 0 7.92 0 12 0 C12 1.65 12 3.3 12 5 C9.6167054 6.81883009 8.04181663 8 5 8 C4.67 6.68 4.34 5.36 4 4 C2.68 4 1.36 4 0 4 C0 2.68 0 1.36 0 0 Z " fill="#0F6085" transform="translate(86,102)"/>
<path d="M0 0 C4.89972386 2.27487179 8.81198141 5.62631836 13 9 C12.67 9.99 12.34 10.98 12 12 C7.76345733 11.8029515 6.27721051 11.27105028 3.1875 8.25 C1.17685947 5.26276264 0.31123641 3.52734604 0 0 Z " fill="#0F7DA2" transform="translate(60,96)"/>
<path d="M0 0 C3.01227223 0.45640488 5.34457593 1.15916741 8.12890625 2.4453125 C12.27465954 4.25863699 16.42071442 4.91355667 20.875 5.5625 C23.61667663 5.96366506 26.28357342 6.43234412 29 7 C29.33 7.66 29.66 8.32 30 9 C20.23744423 8.83899833 8.80943683 8.18830208 1.13671875 1.3359375 C0.76160156 0.89507812 0.38648438 0.45421875 0 0 Z " fill="#000F21" transform="translate(59,133)"/>
<path d="M0 0 C2.36458739 0.91532415 4.69816266 1.85502301 6.984375 2.953125 C11.13847803 4.92706048 14.81399449 6.23836777 19.375 6.9375 C23.73472405 7.69571288 23.73472405 7.69571288 26.125 10.4375 C27 13 27 13 27 16 C26.34 16 25.68 16 25 16 C24.78988281 15.21109375 24.57976562 14.4221875 24.36328125 13.609375 C23.23114392 10.76617842 23.23114392 10.76617842 20.35546875 9.890625 C19.31003906 9.67921875 18.26460937 9.4678125 17.1875 9.25 C16.14980469 9.02828125 15.11210938 8.8065625 14.04296875 8.578125 C12.53669922 8.29195312 12.53669922 8.29195312 11 8 C10.04738281 7.80921875 9.09476563 7.6184375 8.11328125 7.421875 C7.41589844 7.28265625 6.71851562 7.1434375 6 7 C6 6.01 6 5.02 6 4 C3.03 3.505 3.03 3.505 0 3 C0 2.01 0 1.02 0 0 Z " fill="#081521" transform="translate(68,119)"/>
<path d="M0 0 C1.60488281 0.00483398 1.60488281 0.00483398 3.2421875 0.00976562 C4.35335937 0.01814453 5.46453125 0.02652344 6.609375 0.03515625 C8.29933594 0.04192383 8.29933594 0.04192383 10.0234375 0.04882812 C12.80213717 0.06060228 15.58072909 0.07704785 18.359375 0.09765625 C18.359375 0.75765625 18.359375 1.41765625 18.359375 2.09765625 C15.18427518 3.15602286 12.71655117 3.30009414 9.37890625 3.4140625 C8.21552734 3.45595703 7.05214844 3.49785156 5.85351562 3.54101562 C4.63857422 3.58033203 3.42363281 3.61964844 2.171875 3.66015625 C0.94533203 3.70333984 -0.28121094 3.74652344 -1.54492188 3.79101562 C-4.57670881 3.89718715 -7.60857815 3.99923577 -10.640625 4.09765625 C-10.310625 3.10765625 -9.980625 2.11765625 -9.640625 1.09765625 C-6.50611978 -0.15140201 -3.33768531 -0.01775365 0 0 Z " fill="#1F94A3" transform="translate(83.640625,75.90234375)"/>
<path d="M0 0 C0 0.33 0 0.66 0 1 C-1.98 1.33 -3.96 1.66 -6 2 C-6.33 4.64 -6.66 7.28 -7 10 C-5.35 9.67 -3.7 9.34 -2 9 C-1.67 10.65 -1.34 12.3 -1 14 C-1.99 14 -2.98 14 -4 14 C-4 13.01 -4 12.02 -4 11 C-4.33 11.99 -4.66 12.98 -5 14 C-5.66 14 -6.32 14 -7 14 C-7.33 14.66 -7.66 15.32 -8 16 C-9.99648506 3.771529 -9.99648506 3.771529 -7.875 0 C-5.06863762 -1.49672661 -2.99840718 -0.73294398 0 0 Z " fill="#229399" transform="translate(97,58)"/>
<path d="M0 0 C0.66 0.33 1.32 0.66 2 1 C0.68 2.65 -0.64 4.3 -2 6 C-1.34 6.33 -0.68 6.66 0 7 C-3.42826641 9.15853811 -5.14062184 8.86836009 -9 8 C-9.721875 8.185625 -10.44375 8.37125 -11.1875 8.5625 C-11.785625 8.706875 -12.38375 8.85125 -13 9 C-13.66 8.34 -14.32 7.68 -15 7 C-14.25234375 6.74605469 -13.5046875 6.49210938 -12.734375 6.23046875 C-11.74953125 5.88628906 -10.7646875 5.54210937 -9.75 5.1875 C-8.77546875 4.85105469 -7.8009375 4.51460937 -6.796875 4.16796875 C-4.14051698 3.05867958 -2.20310061 1.8306717 0 0 Z " fill="#0A1726" transform="translate(112,126)"/>
<path d="M0 0 C2.475 0.495 2.475 0.495 5 1 C5 1.66 5 2.32 5 3 C5.5775 2.62875 6.155 2.2575 6.75 1.875 C9 1 9 1 11.0625 1.875 C11.701875 2.24625 12.34125 2.6175 13 3 C13.99 3 14.98 3 16 3 C15.67 4.32 15.34 5.64 15 7 C3.97553517 5.18042813 3.97553517 5.18042813 0 2 C0 1.34 0 0.68 0 0 Z " fill="#0E364E" transform="translate(72,113)"/>
<path d="M0 0 C4.875 2.625 4.875 2.625 6 6 C3.1875 7.5625 3.1875 7.5625 0 9 C-0.99 8.67 -1.98 8.34 -3 8 C-3 6.02 -3 4.04 -3 2 C-2.01 2 -1.02 2 0 2 C0 1.34 0 0.68 0 0 Z " fill="#14B2CA" transform="translate(106,68)"/>
<path d="M0 0 C0.66 0 1.32 0 2 0 C2.33 1.98 2.66 3.96 3 6 C2.34 5.67 1.68 5.34 1 5 C1.84188612 6.94729537 1.84188612 6.94729537 3 8 C3.14115161 10.67058851 3.04247107 13.32432238 3 16 C2.01 16.33 1.02 16.66 0 17 C-0.19386492 14.35448944 -0.38038267 11.70882217 -0.5625 9.0625 C-0.61857422 8.30775391 -0.67464844 7.55300781 -0.73242188 6.77539062 C-0.86176157 4.85254042 -0.93516912 2.92610452 -1 1 C-0.67 0.67 -0.34 0.34 0 0 Z " fill="#129BB4" transform="translate(73,80)"/>
<path d="M0 0 C0.33 0.66 0.66 1.32 1 2 C1.66 2 2.32 2 3 2 C3.33 3.98 3.66 5.96 4 8 C7.465 7.505 7.465 7.505 11 7 C10.2575 7.53625 9.515 8.0725 8.75 8.625 C5.82325039 11.15264739 4.01378661 13.71827368 2 17 C1 15 1 15 1.53125 13.12890625 C2.11194292 10.49159258 1.5889394 9.37353254 0.5 6.9375 C-1.10846343 3.3253903 -1.10846343 3.3253903 0 0 Z " fill="#17A0B7" transform="translate(100,68)"/>
<path d="M0 0 C-0.33 2.31 -0.66 4.62 -1 7 C-2.32 5.68 -3.64 4.36 -5 3 C-5.66 4.65 -6.32 6.3 -7 8 C-7.66 8 -8.32 8 -9 8 C-8.979375 7.05125 -8.95875 6.1025 -8.9375 5.125 C-8.77448174 2.09333717 -8.77448174 2.09333717 -10 0 C-6.7169902 -1.6415049 -3.57454967 -0.51888624 0 0 Z " fill="#19ABC2" transform="translate(70,78)"/>
<path d="M0 0 C0.99 0 1.98 0 3 0 C3.391875 0.94875 3.78375 1.8975 4.1875 2.875 C5.69702271 6.05801167 5.69702271 6.05801167 8.1875 7.3125 C11.79011546 8.19313933 15.30933439 8.62467807 19 9 C19 9.33 19 9.66 19 10 C13.16321733 11.25073914 10.01208912 11.05728171 4.76171875 8.203125 C2.87962715 6.91779415 1.41515922 5.79398645 0 4 C0 2.68 0 1.36 0 0 Z " fill="#081525" transform="translate(108,97)"/>
<path d="M0 0 C2.97 0 5.94 0 9 0 C8.34 2.31 7.68 4.62 7 7 C5.68 6.67 4.36 6.34 3 6 C2.87625 5.195625 2.7525 4.39125 2.625 3.5625 C2.315625 2.2940625 2.315625 2.2940625 2 1 C1.34 0.67 0.68 0.34 0 0 Z " fill="#0E7EA9" transform="translate(76,103)"/>
<path d="M0 0 C0.33 0 0.66 0 1 0 C1.33 4.95 1.66 9.9 2 15 C-0.64 15.33 -3.28 15.66 -6 16 C-5.53980469 15.64292969 -5.07960937 15.28585938 -4.60546875 14.91796875 C-2.36499924 12.24139812 -2.01856724 9.70834719 -1.3125 6.3125 C-1.06113281 5.13300781 -0.80976562 3.95351562 -0.55078125 2.73828125 C-0.36902344 1.83464844 -0.18726562 0.93101563 0 0 Z " fill="#0E89A1" transform="translate(69,83)"/>
<path d="M0 0 C6.80959748 1.00882926 12.03855935 4.79935927 16.5625 9.875 C17.036875 10.57625 17.51125 11.2775 18 12 C17.01 12 16.02 12 15 12 C14.814375 11.38125 14.62875 10.7625 14.4375 10.125 C12.2893872 6.94952891 9.63189994 6.92336439 6 6 C1.2 3.6 1.2 3.6 0 0 Z " fill="#041F2B" transform="translate(104,40)"/>
<path d="M0 0 C0.99 1.32 1.98 2.64 3 4 C0.90469426 6.17290966 -1.12107013 8.0885879 -3.5625 9.875 C-6.35828647 12.31235231 -7.54117682 14.62167264 -9 18 C-9.75 16.375 -9.75 16.375 -10 14 C-7.0911188 8.40599769 -7.0911188 8.40599769 -3.3125 7 C-2.549375 6.67 -1.78625 6.34 -1 6 C-0.10169161 2.94727535 -0.10169161 2.94727535 0 0 Z " fill="#187185" transform="translate(112,70)"/>
<path d="M0 0 C0.99 0 1.98 0 3 0 C4.82421875 1.96875 4.82421875 1.96875 6.6875 4.5 C7.31011719 5.3353125 7.93273437 6.170625 8.57421875 7.03125 C9.04472656 7.6809375 9.51523438 8.330625 10 9 C10.66 8.34 11.32 7.68 12 7 C11.6814823 4.89179203 11.6814823 4.89179203 11 3 C11.99 3.66 12.98 4.32 14 5 C14.25 7.5625 14.25 7.5625 14 10 C13 11 13 11 10.6875 11.4375 C8 11 8 11 5.9375 8.3125 C5.298125 7.219375 4.65875 6.12625 4 5 C2.68456721 3.31916921 1.35683751 1.6475884 0 0 Z " fill="#031F2B" transform="translate(111,50)"/>
<path d="M0 0 C4.875 4.75 4.875 4.75 6 7 C2.61127367 10.58806317 -0.76141332 13.45684799 -5 16 C-5.66 16 -6.32 16 -7 16 C-7 15.34 -7 14.68 -7 14 C-5.3203125 12.81640625 -5.3203125 12.81640625 -3.125 11.5625 C-0.08869645 9.82669206 0.99102668 9.01345998 3 6 C2.505 5.566875 2.01 5.13375 1.5 4.6875 C0 3 0 3 0 0 Z " fill="#0A293C" transform="translate(105,102)"/>
<path d="M0 0 C4.88184546 0.41371572 9.51799056 0.91534445 14 3 C15.875 5.625 15.875 5.625 17 8 C14.13444648 6.87114558 11.31334952 5.69345961 8.5 4.4375 C5.59272667 3.24344131 3.0872655 2.4677675 0 2 C-0.33 2.66 -0.66 3.32 -1 4 C-1 1 -1 1 0 0 Z " fill="#05212E" transform="translate(94,42)"/>
<path d="M0 0 C-0.33 0.66 -0.66 1.32 -1 2 C-2.92578125 2.6328125 -2.92578125 2.6328125 -5.3125 3.125 C-6.09238281 3.29257812 -6.87226562 3.46015625 -7.67578125 3.6328125 C-10 4 -10 4 -14 4 C-14 4.66 -14 5.32 -14 6 C-14.99 5.67 -15.98 5.34 -17 5 C-7.375 -1.71511628 -7.375 -1.71511628 0 0 Z " fill="#30999D" transform="translate(88,58)"/>
<path d="M0 0 C0.66 0 1.32 0 2 0 C2.144375 1.11375 2.28875 2.2275 2.4375 3.375 C2.78372035 6.82142047 2.78372035 6.82142047 4 9 C4.99 8.67 5.98 8.34 7 8 C9.35188447 8.59793673 11.68925595 9.25881795 14 10 C14 10.33 14 10.66 14 11 C12.58344207 11.0272415 11.16672955 11.04650467 9.75 11.0625 C8.56664063 11.07990234 8.56664063 11.07990234 7.359375 11.09765625 C5 11 5 11 1 10 C0.67 6.7 0.34 3.4 0 0 Z " fill="#13839E" transform="translate(71,89)"/>
<path d="M0 0 C4.26826873 0 4.93882432 0.37613513 8 3 C7.67 3.99 7.34 4.98 7 6 C4.69 5.67 2.38 5.34 0 5 C-0.33 4.01 -0.66 3.02 -1 2 C-0.67 1.34 -0.34 0.68 0 0 Z " fill="#072137" transform="translate(57,114)"/>
<path d="M0 0 C1.5 1.375 1.5 1.375 3 3 C3 3.66 3 4.32 3 5 C0.09399739 6.25664978 -1.79604584 7 -5 7 C-5 5.35 -5 3.7 -5 2 C-3.68 2 -2.36 2 -1 2 C-0.67 1.34 -0.34 0.68 0 0 Z " fill="#0A283D" transform="translate(94,113)"/>
<path d="M0 0 C0.33 0.99 0.66 1.98 1 3 C1.66 3 2.32 3 3 3 C2.34 5.97 1.68 8.94 1 12 C0.01 11.67 -0.98 11.34 -2 11 C-1.67 10.01 -1.34 9.02 -1 8 C-1.2784375 7.0409375 -1.2784375 7.0409375 -1.5625 6.0625 C-2.1280306 3.39642715 -1.38261562 2.27724925 0 0 Z " fill="#0A3C55" transform="translate(97,107)"/>
<path d="M0 0 C0.33 0 0.66 0 1 0 C1.41815082 1.74480197 1.80873982 3.49622557 2.1875 5.25 C2.40792969 6.22453125 2.62835938 7.1990625 2.85546875 8.203125 C3 11 3 11 1.55078125 13.359375 C0.78314453 14.17148438 0.78314453 14.17148438 0 15 C-0.19448477 12.87562788 -0.38038289 10.75046809 -0.5625 8.625 C-0.66691406 7.44164063 -0.77132812 6.25828125 -0.87890625 5.0390625 C-1 2 -1 2 0 0 Z " fill="#031E2B" transform="translate(34,84)"/>
<path d="M0 0 C0.66 0 1.32 0 2 0 C2.66 1.32 3.32 2.64 4 4 C0.77208445 6.1519437 -0.28400809 6.20086443 -4 6 C-4.33 5.01 -4.66 4.02 -5 3 C-4.360625 2.690625 -3.72125 2.38125 -3.0625 2.0625 C-1.06389179 1.1654837 -1.06389179 1.1654837 0 0 Z " fill="#14B1C7" transform="translate(70,68)"/>
<path d="M0 0 C2.375 0.5625 2.375 0.5625 5 2 C6.3125 5.625 6.3125 5.625 7 9 C3.63408134 7.55746343 1.48952921 5.66735273 -1 3 C-0.67 2.01 -0.34 1.02 0 0 Z " fill="#092033" transform="translate(49,120)"/>
<path d="M0 0 C0.66 0.33 1.32 0.66 2 1 C1.67 5.62 1.34 10.24 1 15 C0.34 15 -0.32 15 -1 15 C-1.02703381 13.06257659 -1.04641125 11.12504521 -1.0625 9.1875 C-1.07410156 8.10855469 -1.08570313 7.02960938 -1.09765625 5.91796875 C-1 3 -1 3 0 0 Z " fill="#208899" transform="translate(60,79)"/>
<path d="M0 0 C2.31 0 4.62 0 7 0 C6.34 1.65 5.68 3.3 5 5 C4.34 5 3.68 5 3 5 C3 5.66 3 6.32 3 7 C2.34 7 1.68 7 1 7 C0.67 4.69 0.34 2.38 0 0 Z " fill="#12A9C6" transform="translate(75,79)"/>
<path d="M0 0 C5.20824706 1.46481949 9.51460171 4.93641648 13 9 C13.734375 11.73046875 13.734375 11.73046875 14 14 C13.44828125 13.26265625 12.8965625 12.5253125 12.328125 11.765625 C9.99266433 8.99128582 7.62248165 6.95055612 4.75 4.75 C3.1507068 3.52048558 1.56235575 2.27612263 0 1 C0 0.67 0 0.34 0 0 Z " fill="#2B9CA0" transform="translate(98,59)"/>
<path d="M0 0 C0.66 0.33 1.32 0.66 2 1 C2 1.66 2 2.32 2 3 C3.32 3 4.64 3 6 3 C6 3.66 6 4.32 6 5 C5.34 5 4.68 5 4 5 C4.66 6.32 5.32 7.64 6 9 C5.01 9 4.02 9 3 9 C2.34 8.01 1.68 7.02 1 6 C0.34 5.67 -0.32 5.34 -1 5 C-0.67 3.35 -0.34 1.7 0 0 Z " fill="#081A27" transform="translate(113,86)"/>
<path d="M0 0 C0.99 0.33 1.98 0.66 3 1 C2.21085079 2.60540659 1.41858235 4.20928016 0.625 5.8125 C0.18414062 6.70582031 -0.25671875 7.59914063 -0.7109375 8.51953125 C-2 11 -2 11 -4 14 C-5.06528748 11.26980214 -5.07998186 10.20701188 -4.00390625 7.421875 C-3.52824219 6.54015625 -3.05257812 5.6584375 -2.5625 4.75 C-2.08941406 3.85796875 -1.61632813 2.9659375 -1.12890625 2.046875 C-0.75636719 1.37140625 -0.38382813 0.6959375 0 0 Z " fill="#0C1E2F" transform="translate(58,64)"/>
<path d="M0 0 C-0.33 0.99 -0.66 1.98 -1 3 C-1.66 3 -2.32 3 -3 3 C-3.33 3.99 -3.66 4.98 -4 6 C-6.1385485 3.8614515 -6.42655063 2.86724686 -7 0 C-3.86650268 -1.04449911 -3.01031744 -0.93423645 0 0 Z " fill="#0FACBF" transform="translate(103,79)"/>
<path d="M0 0 C1.98 0 3.96 0 6 0 C7.32 2.97 8.64 5.94 10 9 C9.34 9 8.68 9 8 9 C6.98594743 7.67732273 5.98731742 6.34275169 5 5 C4.01 4.34 3.02 3.68 2 3 C2.33 2.67 2.66 2.34 3 2 C2.01 1.34 1.02 0.68 0 0 Z " fill="#0E677A" transform="translate(65,98)"/>
<path d="M0 0 C1.98 0 3.96 0 6 0 C3.23129521 2.97379403 0.47740928 4.93235124 -3 7 C-3.33 7.66 -3.66 8.32 -4 9 C-4.66 8.67 -5.32 8.34 -6 8 C-4.07423885 5.56070254 -2.19909405 3.19909405 0 1 C0 0.67 0 0.34 0 0 Z " fill="#030D19" transform="translate(116,79)"/>
<path d="M0 0 C2.31 0 4.62 0 7 0 C7.33 0.66 7.66 1.32 8 2 C6.824375 2.1546875 6.824375 2.1546875 5.625 2.3125 C2.66954819 2.77595022 2.66954819 2.77595022 1 6 C0.34 6 -0.32 6 -1 6 C-0.67 4.02 -0.34 2.04 0 0 Z " fill="#22BBC4" transform="translate(92,60)"/>
<path d="M0 0 C2.4375 0.75 2.4375 0.75 5 2 C5.8125 4.125 5.8125 4.125 6 6 C4.68 6 3.36 6 2 6 C1.34 4.02 0.68 2.04 0 0 Z " fill="#0D5B74" transform="translate(100,102)"/>
<path d="M0 0 C3.14958831 3.42346555 3.56179109 6.44262737 4 11 C3.01 11.495 3.01 11.495 2 12 C0.70756464 7.8803623 -0.26252625 4.33168317 0 0 Z " fill="#092639" transform="translate(36,95)"/>
<path d="M0 0 C0.61488281 0.18949219 1.22976562 0.37898438 1.86328125 0.57421875 C0.74358265 1.58015118 -0.38265995 2.57880365 -1.51171875 3.57421875 C-2.13820313 4.13109375 -2.7646875 4.68796875 -3.41015625 5.26171875 C-5.13671875 6.57421875 -5.13671875 6.57421875 -7.13671875 6.57421875 C-6.76164493 3.85493358 -6.29453214 2.73203214 -4.32421875 0.76171875 C-2.13671875 -0.42578125 -2.13671875 -0.42578125 0 0 Z " fill="#0B3745" transform="translate(59.13671875,46.42578125)"/>
<path d="M0 0 C0.99 0.33 1.98 0.66 3 1 C2.65120368 4.25543229 1.97866739 5.01873107 -0.5625 7.25 C-1.7690625 8.11625 -1.7690625 8.11625 -3 9 C-3 5.30581799 -1.71820705 3.22163822 0 0 Z " fill="#23B6C9" transform="translate(70,63)"/>
<path d="M0 0 C0.99 0.33 1.98 0.66 3 1 C1.35 2.65 -0.3 4.3 -2 6 C-2.99 5.34 -3.98 4.68 -5 4 C-2.6875 1.9375 -2.6875 1.9375 0 0 Z " fill="#101D27" transform="translate(114,79)"/>
<path d="M0 0 C0.66 0 1.32 0 2 0 C2 0.99 2 1.98 2 3 C2.66 3 3.32 3 4 3 C4.33 4.98 4.66 6.96 5 9 C1.7457985 6.16569547 0.4793247 4.31392226 0 0 Z " fill="#13697C" transform="translate(74,101)"/>
<path d="M0 0 C1.98 0.99 1.98 0.99 4 2 C4 3.98 4 5.96 4 8 C1.10067643 5.60490662 0.49831724 3.68754757 0 0 Z " fill="#186072" transform="translate(60,96)"/>
<path d="M0 0 C2.1875 0.3125 2.1875 0.3125 4 1 C3.01 1 2.02 1 1 1 C0.67 3.31 0.34 5.62 0 8 C-0.12375 7.360625 -0.2475 6.72125 -0.375 6.0625 C-0.684375 5.0415625 -0.684375 5.0415625 -1 4 C-1.66 3.67 -2.32 3.34 -3 3 C-1.75 1.4375 -1.75 1.4375 0 0 Z " fill="#081C2D" transform="translate(120,81)"/>
<path d="M0 0 C0.33 0.66 0.66 1.32 1 2 C2.32 1.67 3.64 1.34 5 1 C5.33 1.66 5.66 2.32 6 3 C5.34 3 4.68 3 4 3 C4 3.66 4 4.32 4 5 C2.02 5 0.04 5 -2 5 C-1.34 3.35 -0.68 1.7 0 0 Z " fill="#1DA8AE" transform="translate(92,71)"/>
<path d="M0 0 C0.99 0.66 1.98 1.32 3 2 C3 2.99 3 3.98 3 5 C1.35 5 -0.3 5 -2 5 C-1.125 1.125 -1.125 1.125 0 0 Z " fill="#0EBCCE" transform="translate(103,65)"/>
<path d="M0 0 C0.66 0 1.32 0 2 0 C2 2.64 2 5.28 2 8 C1.01 8.33 0.02 8.66 -1 9 C-0.67 6.03 -0.34 3.06 0 0 Z " fill="#10A8AF" transform="translate(87,65)"/>
<path d="M0 0 C-1.61594832 2.04119788 -3.2856382 4.04072937 -5 6 C-5.66 6 -6.32 6 -7 6 C-6.75 3.625 -6.75 3.625 -6 1 C-2.69333333 -1.34666667 -2.69333333 -1.34666667 0 0 Z " fill="#1CBFD3" transform="translate(82,61)"/>
<path d="M0 0 C0.99 0.99 1.98 1.98 3 3 C0.35261084 4.4606285 -0.89448334 5 -4 5 C-4 4.01 -4 3.02 -4 2 C-2.68 2 -1.36 2 0 2 C0 1.34 0 0.68 0 0 Z " fill="#0F4E6E" transform="translate(106,106)"/>
<path d="M0 0 C1.65 0 3.3 0 5 0 C4.67 1.32 4.34 2.64 4 4 C2.68 3.67 1.36 3.34 0 3 C0 2.01 0 1.02 0 0 Z " fill="#08769C" transform="translate(79,106)"/>
<path d="M0 0 C0.99 0.33 1.98 0.66 3 1 C3.33 2.98 3.66 4.96 4 7 C3.01 7.495 3.01 7.495 2 8 C1.01 5.69 0.02 3.38 -1 1 C-0.67 0.67 -0.34 0.34 0 0 Z " fill="#071E33" transform="translate(43,112)"/>
<path d="M0 0 C1.65 0 3.3 0 5 0 C4.67 1.32 4.34 2.64 4 4 C2.68 4 1.36 4 0 4 C0 2.68 0 1.36 0 0 Z " fill="#18647B" transform="translate(86,102)"/>
<path d="M0 0 C0.99 1.32 1.98 2.64 3 4 C1.68 5.32 0.36 6.64 -1 8 C-1.66 7.34 -2.32 6.68 -3 6 C-2.34 6 -1.68 6 -1 6 C-0.67 4.02 -0.34 2.04 0 0 Z " fill="#1E8082" transform="translate(112,70)"/>
<path d="M0 0 C1.485 0.99 1.485 0.99 3 2 C3.1875 4.625 3.1875 4.625 3 7 C1.68 7.33 0.36 7.66 -1 8 C-0.4740625 7.13375 -0.4740625 7.13375 0.0625 6.25 C1.14917407 3.64198224 0.93065133 2.60582371 0 0 Z " fill="#01121C" transform="translate(122,53)"/>
<path d="" fill="#353535" transform="translate(0,0)"/>
<path d="" fill="#000000" transform="translate(0,0)"/>
<path d="" fill="#272727" transform="translate(0,0)"/>
<path d="" fill="#000000" transform="translate(0,0)"/>
<path d="" fill="#400040" transform="translate(0,0)"/>
<path d="" fill="#404040" transform="translate(0,0)"/>
<path d="" fill="#0000FF" transform="translate(0,0)"/>
</svg>
