<?xml version="1.0" encoding="UTF-8"?>
<svg version="1.1" xmlns="http://www.w3.org/2000/svg" width="173" height="173">
<path d="M0 0 C8.49232917 4.34010628 14.73862969 10.82135782 17.765625 19.90234375 C19.89521457 27.11018538 18.00226186 34.99157004 14.703125 41.58984375 C10.71682446 48.08215193 5.25767281 53.36241681 -1.984375 55.96484375 C-10.93698586 58.09178391 -19.9955029 56.99821732 -28.01171875 52.48828125 C-34.69679491 47.71826206 -39.54281532 40.99241177 -41.234375 32.90234375 C-42.1751893 23.24742975 -40.30912185 15.34468181 -34.109375 7.77734375 C-32.6015625 6.08203125 -32.6015625 6.08203125 -31.234375 4.90234375 C-30.574375 4.90234375 -29.914375 4.90234375 -29.234375 4.90234375 C-29.234375 4.24234375 -29.234375 3.58234375 -29.234375 2.90234375 C-19.40709502 -1.8998175 -10.43069733 -4.60053114 0 0 Z M-31.234375 13.90234375 C-34.84034605 19.60677286 -35.07609908 26.350287 -34.234375 32.90234375 C-32.43418105 39.1280145 -28.59439421 43.39098422 -23.234375 46.90234375 C-17.88861539 49.79341782 -12.25507215 51.005974 -6.234375 49.90234375 C-2.73938834 48.4945729 0.51495232 46.8025282 3.765625 44.90234375 C3.270625 41.43734375 3.270625 41.43734375 2.765625 37.90234375 C2.18071289 37.89299805 1.59580078 37.88365234 0.99316406 37.87402344 C-1.6668608 37.82021096 -4.32514722 37.73658926 -6.984375 37.65234375 C-7.90476562 37.63816406 -8.82515625 37.62398437 -9.7734375 37.609375 C-16.58473252 37.36258895 -16.58473252 37.36258895 -19.8203125 35.0703125 C-21.82455977 31.99750246 -22.1065333 29.5458321 -22.234375 25.90234375 C-21.25375159 22.30672458 -19.88732447 20.4347046 -17.234375 17.90234375 C-17.234375 17.24234375 -17.234375 16.58234375 -17.234375 15.90234375 C-11.66449643 15.61424658 -8.03767024 15.70014692 -3.234375 18.90234375 C-1.44106761 21.79156121 -0.90613426 24.28907218 -0.609375 27.65234375 C-0.53460938 28.4515625 -0.45984375 29.25078125 -0.3828125 30.07421875 C-0.33382812 30.6775 -0.28484375 31.28078125 -0.234375 31.90234375 C0.40371094 32.09570312 1.04179688 32.2890625 1.69921875 32.48828125 C2.52550781 32.74867187 3.35179687 33.0090625 4.203125 33.27734375 C5.02683594 33.53257813 5.85054687 33.7878125 6.69921875 34.05078125 C8.765625 34.90234375 8.765625 34.90234375 9.765625 36.90234375 C12.35699696 30.5858746 12.8938674 24.7742335 10.390625 18.40234375 C9.00700768 15.81211819 9.00700768 15.81211819 6.765625 14.90234375 C4.75762044 15.18346439 2.75548449 15.51302342 0.765625 15.90234375 C0.765625 12.93234375 0.765625 9.96234375 0.765625 6.90234375 C-11.62077113 1.59388827 -22.11948628 3.48832146 -31.234375 13.90234375 Z " fill="#364250" transform="translate(98.234375,47.09765625)"/>
<path d="M0 0 C1.4375 2.1875 1.4375 2.1875 2 4 C2.53625 3.649375 3.0725 3.29875 3.625 2.9375 C7.47055446 1.41951798 10.79445017 2.69160353 14.6875 3.6875 C17.27191143 4.29620858 17.27191143 4.29620858 20 2 C22.2265625 1.98828125 22.2265625 1.98828125 24.625 2.3125 C25.81996094 2.46138672 25.81996094 2.46138672 27.0390625 2.61328125 C29 3 29 3 30 4 C30.33 3.34 30.66 2.68 31 2 C36.65632286 0.67912611 41.6329628 0.64373977 47 3 C47.99 3.33 48.98 3.66 50 4 C51.10166308 8.62698494 51.11077902 11.67792868 49 16 C46.875 16.875 46.875 16.875 45 17 C44.34 15.35 43.68 13.7 43 12 C42.67 13.32 42.34 14.64 42 16 C39.92446352 16.5534764 38.15634036 17 36 17 C35.38125 17.185625 34.7625 17.37125 34.125 17.5625 C32 18 32 18 30.0625 17.5 C27.94345722 16.83121925 27.94345722 16.83121925 25.5625 17.5 C22.03719193 18.18786499 19.32602413 17.40182549 15.9375 16.375 C14.01189189 15.8520253 14.01189189 15.8520253 12.20703125 16.50390625 C9.5596947 17.09897128 7.438531 16.88087867 4.75 16.5625 C3.85796875 16.46066406 2.9659375 16.35882813 2.046875 16.25390625 C1.37140625 16.17011719 0.6959375 16.08632812 0 16 C-0.13148437 16.63292969 -0.26296875 17.26585938 -0.3984375 17.91796875 C-1 20 -1 20 -2.625 21.3125 C-6.52262702 22.44076045 -10.38699455 21.80650272 -14 20 C-13.773125 19.2575 -13.54625 18.515 -13.3125 17.75 C-12.67488012 14.97482325 -12.67488012 14.97482325 -14.4375 13.125 C-16.74558918 9.98599871 -16.46669852 7.80025939 -16 4 C-14.20093665 1.00156108 -12.60839795 -0.60536349 -9.6875 -2.5 C-5.69366555 -3.24303897 -3.47005603 -1.96418266 0 0 Z M-7 3 C-7.33 3.99 -7.66 4.98 -8 6 C-6.68 5.67 -5.36 5.34 -4 5 C-4.33 4.34 -4.66 3.68 -5 3 C-5.66 3 -6.32 3 -7 3 Z M-9 6 C-8 8 -8 8 -8 8 Z M-11 7 C-10 9 -10 9 -10 9 Z M6 7 C6.99 8.485 6.99 8.485 8 10 C8.33 9.01 8.66 8.02 9 7 C8.01 7 7.02 7 6 7 Z M43 7 C44 10 44 10 44 10 Z M9 8 C10 11 10 11 10 11 Z M24 8 C25 11 25 11 25 11 Z M36 8 C35.67 10.31 35.34 12.62 35 15 C35.66 15 36.32 15 37 15 C37 12.69 37 10.38 37 8 C36.67 8 36.34 8 36 8 Z M-9 9 C-8 11 -8 11 -8 11 Z M22 9 C22 9.99 22 10.98 22 12 C22.66 11.67 23.32 11.34 24 11 C23.34 10.34 22.68 9.68 22 9 Z " fill="#1C2431" transform="translate(69,110)"/>
<path d="M0 0 C2.80877058 3.38704688 3.24891304 4.88858703 3.1875 9.1875 C3.17847656 10.00476563 3.16945313 10.82203125 3.16015625 11.6640625 C3.14855469 12.29054688 3.13695313 12.91703125 3.125 13.5625 C4.07375 13.665625 5.0225 13.76875 6 13.875 C9.125 14.5625 9.125 14.5625 11.125 17.5625 C11.125 18.5525 11.125 19.5425 11.125 20.5625 C10.465 20.8925 9.805 21.2225 9.125 21.5625 C8.46944881 24.08983235 8.46944881 24.08983235 8.125 26.5625 C6.125 24.5625 6.125 24.5625 6 21.9375 C6.04125 21.15375 6.0825 20.37 6.125 19.5625 C5.54532471 19.58868408 4.96564941 19.61486816 4.3684082 19.6418457 C1.72505125 19.74620612 -0.91787199 19.81094327 -3.5625 19.875 C-4.93051758 19.9378418 -4.93051758 19.9378418 -6.32617188 20.00195312 C-10.96166965 20.0862349 -13.14817693 20.10371212 -16.96484375 17.26171875 C-19.8131149 13.23686116 -19.9797937 9.7631677 -19.75 4.9375 C-18.33109743 1.08619302 -15.72405292 -1.57460864 -12 -3.3125 C-7.02272335 -3.60528098 -3.8720984 -3.28286604 0 0 Z " fill="#293846" transform="translate(94.875,65.4375)"/>
<path d="M0 0 C5.59011834 2.87527058 12.44525845 7.03920498 14.58203125 13.28515625 C14.64390625 14.15140625 14.70578125 15.01765625 14.76953125 15.91015625 C14.95231866 17.34826308 15.14010576 18.78574042 15.33203125 20.22265625 C15.47640625 21.43953125 15.62078125 22.65640625 15.76953125 23.91015625 C14.77953125 23.58015625 13.78953125 23.25015625 12.76953125 22.91015625 C12.10286458 21.57682292 11.43619792 20.24348958 10.76953125 18.91015625 C8.251171 16.391796 7.13198746 15.93106719 3.51953125 15.72265625 C2.61203125 15.78453125 1.70453125 15.84640625 0.76953125 15.91015625 C-0.38987913 12.4319251 0.06132241 10.45120047 0.76953125 6.91015625 C-8.30818404 4.31652331 -14.51287274 4.17956638 -23.23046875 7.91015625 C-24.22046875 8.24015625 -25.21046875 8.57015625 -26.23046875 8.91015625 C-27.43928971 10.91032091 -27.43928971 10.91032091 -28.23046875 12.91015625 C-29.55046875 12.91015625 -30.87046875 12.91015625 -32.23046875 12.91015625 C-32.41222656 13.50183594 -32.59398438 14.09351562 -32.78125 14.703125 C-34.17980285 19.0996014 -35.531716 23.10736828 -38.23046875 26.91015625 C-38.56046875 26.91015625 -38.89046875 26.91015625 -39.23046875 26.91015625 C-39.56046875 28.89015625 -39.89046875 30.87015625 -40.23046875 32.91015625 C-40.56046875 32.91015625 -40.89046875 32.91015625 -41.23046875 32.91015625 C-41.89910651 23.14061568 -40.41082819 15.4814038 -34.10546875 7.78515625 C-32.59765625 6.08984375 -32.59765625 6.08984375 -31.23046875 4.91015625 C-30.57046875 4.91015625 -29.91046875 4.91015625 -29.23046875 4.91015625 C-29.23046875 4.25015625 -29.23046875 3.59015625 -29.23046875 2.91015625 C-19.39217568 -1.89738661 -10.44495067 -4.57365457 0 0 Z " fill="#7C7F85" transform="translate(98.23046875,47.08984375)"/>
<path d="M0 0 C6.34535104 2.00379507 6.34535104 2.00379507 8.4375 5.1875 C8.623125 5.785625 8.80875 6.38375 9 7 C9.86625 6.4740625 9.86625 6.4740625 10.75 5.9375 C13.35801776 4.85082593 14.39417629 5.06934867 17 6 C16.67 6.66 16.34 7.32 16 8 C13.4375 8.625 13.4375 8.625 11 9 C10.83312552 11.41645782 10.83312552 11.41645782 11 14 C11.66 14.66 12.32 15.32 13 16 C14.97536745 15.65213292 14.97536745 15.65213292 17 15 C17.99 15 18.98 15 20 15 C18.22510401 17.24197388 17.37824511 17.94326323 14.5 18.375 C12 18 12 18 10.1875 16.8125 C8.63321794 14.44017475 8.77462812 12.77958655 9 10 C7.68 10.33 6.36 10.66 5 11 C5.02320312 11.69867188 5.04640625 12.39734375 5.0703125 13.1171875 C5.09738281 14.48230469 5.09738281 14.48230469 5.125 15.875 C5.14820312 16.77992187 5.17140625 17.68484375 5.1953125 18.6171875 C5 21 5 21 3 23 C-0.125 23.125 -0.125 23.125 -3 23 C-3.33 22.34 -3.66 21.68 -4 21 C-3.34 21 -2.68 21 -2 21 C-1.67 20.34 -1.34 19.68 -1 19 C-1.99 18.21625 -2.98 17.4325 -4 16.625 C-4.99 15.75875 -5.98 14.8925 -7 14 C-7 13.34 -7 12.68 -7 12 C-6.34 12 -5.68 12 -5 12 C-4.67 10.68 -4.34 9.36 -4 8 C-4.99 8.99 -5.98 9.98 -7 11 C-6.38823529 5.49411765 -6.38823529 5.49411765 -4.625 3.25 C-3.13150894 2.10116072 -1.56777954 1.04518636 0 0 Z M0 6 C-0.33 6.99 -0.66 7.98 -1 9 C0.32 8.67 1.64 8.34 3 8 C2.67 7.34 2.34 6.68 2 6 C1.34 6 0.68 6 0 6 Z M-2 9 C-1 11 -1 11 -1 11 Z M-4 10 C-3 12 -3 12 -3 12 Z M-2 12 C-1 14 -1 14 -1 14 Z " fill="#1C2535" transform="translate(62,107)"/>
<path d="M0 0 C0.90492187 0.10828125 0.90492187 0.10828125 1.828125 0.21875 C3.02695313 0.35796875 3.02695313 0.35796875 4.25 0.5 C5.03890625 0.5928125 5.8278125 0.685625 6.640625 0.78125 C9.26890397 1.06154619 9.26890397 1.06154619 13 1 C13.8723412 3.99480917 14.10829766 6.63575911 14.0625 9.75 C14.05347656 10.54921875 14.04445313 11.3484375 14.03515625 12.171875 C14.02355469 12.77515625 14.01195313 13.3784375 14 14 C13.113125 14.144375 12.22625 14.28875 11.3125 14.4375 C9.34276045 14.77198407 7.37853673 15.15157641 5.4375 15.625 C2.65322484 16.05335002 0.68727955 15.8211132 -2 15 C-2.33 14.34 -2.66 13.68 -3 13 C-2.34 12.67 -1.68 12.34 -1 12 C-1.33 11.34 -1.66 10.68 -2 10 C-0.02 9.67 1.96 9.34 4 9 C4 8.01 4 7.02 4 6 C3.01 5.34 2.02 4.68 1 4 C0.3125 1.875 0.3125 1.875 0 0 Z " fill="#1A2330" transform="translate(89,112)"/>
<path d="M0 0 C0.66 0 1.32 0 2 0 C5.36119491 7.30694546 6.5696112 13.02114308 5 21 C3.6875 22.5625 3.6875 22.5625 2 24 C0.56373152 26.28356355 -0.70411263 28.63165411 -2 31 C-2.99 31 -3.98 31 -5 31 C-6.06546953 27.8035914 -6.07427838 25.34252724 -6 22 C-5.01 22 -4.02 22 -3 22 C-1.86519473 18.39006828 -1.89984233 15.0157673 -1.9375 11.25 C-1.94652344 10.07953125 -1.95554687 8.9090625 -1.96484375 7.703125 C-1.97644531 6.81109375 -1.98804687 5.9190625 -2 5 C-0.68 6.32 0.64 7.64 2 9 C1.34 6.03 0.68 3.06 0 0 Z " fill="#5C6670" transform="translate(111,60)"/>
<path d="M0 0 C0.66 0 1.32 0 2 0 C1.43628586 3.26954202 0.50037734 4.82575883 -2 7 C-0.8553125 6.2884375 -0.8553125 6.2884375 0.3125 5.5625 C3 4 3 4 6 3 C5.67 3.99 5.34 4.98 5 6 C4.34 6 3.68 6 3 6 C2.34 7.32 1.68 8.64 1 10 C-0.32 10 -1.64 10 -3 10 C-3.18175781 10.59167969 -3.36351563 11.18335938 -3.55078125 11.79296875 C-4.9493341 16.18944515 -6.30124725 20.19721203 -9 24 C-9.33 24 -9.66 24 -10 24 C-10.33 25.98 -10.66 27.96 -11 30 C-11.33 30 -11.66 30 -12 30 C-12.66863776 20.23045943 -11.18035944 12.57124755 -4.875 4.875 C-3.3671875 3.1796875 -3.3671875 3.1796875 -2 2 C-1.34 2 -0.68 2 0 2 C0 1.34 0 0.68 0 0 Z " fill="#626971" transform="translate(69,50)"/>
<path d="M0 0 C1.32 0.33 2.64 0.66 4 1 C2.02 1.99 2.02 1.99 0 3 C0 3.66 0 4.32 0 5 C0.66 5.66 1.32 6.32 2 7 C1.34 7 0.68 7 0 7 C0 7.99 0 8.98 0 10 C-0.66 10 -1.32 10 -2 10 C0.57784846 12.64752004 2.91648098 14.94432065 6 17 C4.68 17.99 3.36 18.98 2 20 C3.99954746 20.04254356 6.00041636 20.04080783 8 20 C9.33901792 18.88873341 9.33901792 18.88873341 9.09765625 16.05859375 C9.08605469 14.86363281 9.07445313 13.66867188 9.0625 12.4375 C9.05347656 11.23996094 9.04445313 10.04242188 9.03515625 8.80859375 C9.02355469 7.88175781 9.01195313 6.95492187 9 6 C11 8 11 8 11.1953125 11.0390625 C11.17210938 12.22242187 11.14890625 13.40578125 11.125 14.625 C11.10695313 15.81351563 11.08890625 17.00203125 11.0703125 18.2265625 C11.04710938 19.14179688 11.02390625 20.05703125 11 21 C6.99647875 23.3015838 4.5195293 22.92064486 0 22 C-0.66 21.67 -1.32 21.34 -2 21 C-1.773125 20.2575 -1.54625 19.515 -1.3125 18.75 C-0.67488012 15.97482325 -0.67488012 15.97482325 -2.4375 14.125 C-4.74558918 10.98599871 -4.46669852 8.80025939 -4 5 C-2 2.0625 -2 2.0625 0 0 Z " fill="#0A101D" transform="translate(57,109)"/>
<path d="M0 0 C5.44607512 2.25812871 9.33381849 5.44012328 13 10 C13.875 12.4375 13.875 12.4375 14 15 C14.18047329 16.43839907 14.36842925 17.87587234 14.5625 19.3125 C14.7790625 21.1378125 14.7790625 21.1378125 15 23 C14.01 22.67 13.02 22.34 12 22 C11.33333333 20.66666667 10.66666667 19.33333333 10 18 C7.48163975 15.48163975 6.36245621 15.02091094 2.75 14.8125 C1.8425 14.874375 0.935 14.93625 0 15 C-1.1577506 11.52674819 -1.06866652 8.63932552 -1 5 C-0.34 5 0.32 5 1 5 C1.33 7.64 1.66 10.28 2 13 C4.31 12.34 6.62 11.68 9 11 C8.28436734 8.9837767 8.28436734 8.9837767 7 7 C5.67405895 6.63837971 4.34061543 6.30271961 3 6 C2.67 5.01 2.34 4.02 2 3 C1.34 2.67 0.68 2.34 0 2 C0 1.34 0 0.68 0 0 Z " fill="#6D747E" transform="translate(99,48)"/>
<path d="M0 0 C0.66 0.33 1.32 0.66 2 1 C1.505 2.093125 1.01 3.18625 0.5 4.3125 C-1.90507337 10.67686867 -1.75764663 17.47969797 0 24 C0 26 0 26 -1 29 C-1.66 29 -2.32 29 -3 29 C-6.62370247 24.65155704 -7.15547367 19.49645143 -7 14 C-5.8125 11.4375 -5.8125 11.4375 -4 9 C-3.24240936 7.40905966 -2.51509962 5.80347912 -1.8125 4.1875 C-1.46832031 3.39730469 -1.12414062 2.60710938 -0.76953125 1.79296875 C-0.51558594 1.20128906 -0.26164062 0.60960937 0 0 Z " fill="#3C4755" transform="translate(66,60)"/>
<path d="M0 0 C0.55945313 0.47953125 1.11890625 0.9590625 1.6953125 1.453125 C-1.95464297 2.29542242 -4.95073256 2.44380943 -8.6171875 1.890625 C-12.93312971 1.29078218 -16.30728686 1.93890858 -20.45703125 3.17578125 C-21.37162109 3.31306641 -21.37162109 3.31306641 -22.3046875 3.453125 C-22.9646875 2.793125 -23.6246875 2.133125 -24.3046875 1.453125 C-17.17297589 -2.45233612 -7.30528706 -4.90320962 0 0 Z " fill="#979EA5" transform="translate(97.3046875,48.546875)"/>
<path d="M0 0 C0.5775 -0.350625 1.155 -0.70125 1.75 -1.0625 C4.35801776 -2.14917407 5.39417629 -1.93065133 8 -1 C7.67 -0.34 7.34 0.32 7 1 C4.4375 1.625 4.4375 1.625 2 2 C1.83312552 4.41645782 1.83312552 4.41645782 2 7 C2.66 7.66 3.32 8.32 4 9 C5.97536745 8.65213292 5.97536745 8.65213292 8 8 C8.99 8 9.98 8 11 8 C9.22510401 10.24197388 8.37824511 10.94326323 5.5 11.375 C3 11 3 11 1.1875 9.8125 C0 8 0 8 0 3 C-3.3 3 -6.6 3 -10 3 C-7 -1 -7 -1 -5 -1.875 C-3 -2 -3 -2 0 0 Z " fill="#232B38" transform="translate(71,114)"/>
<path d="M0 0 C3.71599191 -0.20086443 4.77208445 -0.1519437 8 2 C8 2.66 8 3.32 8 4 C8.639375 4.268125 9.27875 4.53625 9.9375 4.8125 C12 6 12 6 13 9 C10.09399739 10.25664978 8.20395416 11 5 11 C4.89042969 10.43410156 4.78085938 9.86820313 4.66796875 9.28515625 C4.50941406 8.55167969 4.35085937 7.81820312 4.1875 7.0625 C4.03667969 6.33160156 3.88585937 5.60070313 3.73046875 4.84765625 C3.48941406 4.23792969 3.24835938 3.62820312 3 3 C2.01 2.67 1.02 2.34 0 2 C0 1.34 0 0.68 0 0 Z " fill="#8C9099" transform="translate(96,50)"/>
<path d="M0 0 C0.66 0 1.32 0 2 0 C3.625 2 3.625 2 5 4 C3.15083921 8.06815373 1.33557632 11.0094833 -2 14 C-4.09350689 10.5980513 -4.17942163 7.94727588 -4 4 C-3.01 4 -2.02 4 -1 4 C-0.67 2.68 -0.34 1.36 0 0 Z " fill="#44515C" transform="translate(109,78)"/>
<path d="M0 0 C0.79953138 3.28696233 1.09658936 4.71023192 0 8 C-2.475 7.01 -2.475 7.01 -5 6 C-5 5.34 -5 4.68 -5 4 C-6.65 4.33 -8.3 4.66 -10 5 C-10 3.35 -10 1.7 -10 0 C-6.30581799 -1.231394 -3.7943739 -0.64432764 0 0 Z " fill="#38414C" transform="translate(92,63)"/>
<path d="M0 0 C6 2 6 2 8.05078125 2.80078125 C13.82744298 4.96574684 18.85921302 5.34614039 25 5 C23.87890625 6.5 23.87890625 6.5 22 8 C13.41036571 8.77101907 6.24164368 6.4299897 -1 2 C-0.67 1.34 -0.34 0.68 0 0 Z " fill="#232F3E" transform="translate(69,96)"/>
<path d="M0 0 C0.33 0 0.66 0 1 0 C0.96081168 8.46467605 -2.01417316 12.89153233 -7.77734375 18.83203125 C-10.53807238 21.41153043 -12.1243302 22.88821237 -15.9375 23.375 C-16.618125 23.25125 -17.29875 23.1275 -18 23 C-17.2575 22.4225 -16.515 21.845 -15.75 21.25 C-13.00740053 19.10390345 -13.00740053 19.10390345 -10.875 16.75 C-9 15 -9 15 -6 15 C-5.87625 14.195625 -5.7525 13.39125 -5.625 12.5625 C-5.41875 11.716875 -5.2125 10.87125 -5 10 C-4.34 9.67 -3.68 9.34 -3 9 C-2.09274566 6.88672575 -2.09274566 6.88672575 -1.375 4.4375 C-1.11460938 3.61121094 -0.85421875 2.78492187 -0.5859375 1.93359375 C-0.39257812 1.29550781 -0.19921875 0.65742187 0 0 Z " fill="#252F3C" transform="translate(114,78)"/>
<path d="M0 0 C1.65 0 3.3 0 5 0 C5.33 0.99 5.66 1.98 6 3 C5.01 3 4.02 3 3 3 C3 3.66 3 4.32 3 5 C3.99 5 4.98 5 6 5 C5 8 5 8 2.9375 9.1875 C2.298125 9.455625 1.65875 9.72375 1 10 C1.33 10.66 1.66 11.32 2 12 C1.01 12 0.02 12 -1 12 C-2.35439668 9.29120665 -2.06501451 6.99066732 -2 4 C-1.01 4.33 -0.02 4.66 1 5 C0.67 4.34 0.34 3.68 0 3 C0 2.01 0 1.02 0 0 Z " fill="#131B26" transform="translate(87,113)"/>
<path d="M0 0 C3.6875 1.375 3.6875 1.375 7 3 C6.67 3.99 6.34 4.98 6 6 C4.39125 5.938125 4.39125 5.938125 2.75 5.875 C-0.6861482 5.98953827 -2.25767552 6.0702161 -5 8 C-5.66 8.99 -6.32 9.98 -7 11 C-6.38823529 5.49411765 -6.38823529 5.49411765 -4.625 3.25 C-3.13150894 2.10116072 -1.56777954 1.04518636 0 0 Z " fill="#1C2533" transform="translate(62,107)"/>
<path d="M0 0 C0.70125 0.721875 1.4025 1.44375 2.125 2.1875 C7.18615552 7.1921063 11.50487331 10.49186805 18.14453125 13.10546875 C20 14 20 14 21 16 C12.72413793 15.31034483 12.72413793 15.31034483 9 12 C8.01 11.67 7.02 11.34 6 11 C5.3162955 9.67532254 4.65035814 8.34136367 4 7 C3.01 6.34 2.02 5.68 1 5 C0.3125 2.375 0.3125 2.375 0 0 Z " fill="#343D48" transform="translate(64,83)"/>
<path d="M0 0 C0.99 0 1.98 0 3 0 C3.309375 0.969375 3.61875 1.93875 3.9375 2.9375 C4.69523342 5.84065792 4.69523342 5.84065792 6 7 C8.33297433 7.04092937 10.66705225 7.04241723 13 7 C12.01 8.485 12.01 8.485 11 10 C7.7 9.67 4.4 9.34 1 9 C0.67 9.66 0.34 10.32 0 11 C0 7.37 0 3.74 0 0 Z " fill="#161D2A" transform="translate(68,117)"/>
<path d="M0 0 C-0.99 0.33 -1.98 0.66 -3 1 C-3 1.66 -3 2.32 -3 3 C-0.03 3.495 -0.03 3.495 3 4 C-0.62474314 6.37002436 -2.86541902 5.84379204 -7 5 C-8.66627298 4.96377667 -10.33405374 4.95100158 -12 5 C-11.375 3.125 -11.375 3.125 -10 1 C-6.34962875 -0.66647383 -3.81601142 -1.4676967 0 0 Z " fill="#303C4A" transform="translate(96,97)"/>
<path d="M0 0 C0.33 0 0.66 0 1 0 C1.12117188 0.81984375 1.24234375 1.6396875 1.3671875 2.484375 C1.53476562 3.56203125 1.70234375 4.6396875 1.875 5.75 C2.03742187 6.81734375 2.19984375 7.8846875 2.3671875 8.984375 C2.93223882 11.67708871 3.63422914 13.63572439 5 16 C4.01 16.33 3.02 16.66 2 17 C-1.4274276 12.52944226 -2.20586073 7.53863389 -2 2 C-1.34 1.34 -0.68 0.68 0 0 Z " fill="#465261" transform="translate(61,72)"/>
<path d="M0 0 C5.33161349 2.21066901 9.6681463 5.25814444 13 10 C13.4375 13.9375 13.4375 13.9375 13 17 C11.0625 15.875 11.0625 15.875 9 14 C8.855625 12.989375 8.71125 11.97875 8.5625 10.9375 C8.376875 9.968125 8.19125 8.99875 8 8 C5.54295238 6.76709799 5.54295238 6.76709799 3 6 C2.67 5.01 2.34 4.02 2 3 C1.34 2.67 0.68 2.34 0 2 C0 1.34 0 0.68 0 0 Z " fill="#767A81" transform="translate(99,48)"/>
<path d="M0 0 C1.1898968 4.31337592 0.94128806 7.64654271 0 12 C-1.32 12.33 -2.64 12.66 -4 13 C-4.33 11.02 -4.66 9.04 -5 7 C-4.34 6.67 -3.68 6.34 -3 6 C-2.835 5.175 -2.67 4.35 -2.5 3.5 C-2.335 2.675 -2.17 1.85 -2 1 C-1.34 0.67 -0.68 0.34 0 0 Z " fill="#1E222A" transform="translate(118,114)"/>
<path d="M0 0 C2.91691525 -0.05401695 5.83282724 -0.09368066 8.75 -0.125 C9.575 -0.14175781 10.4 -0.15851563 11.25 -0.17578125 C12.04921875 -0.18222656 12.8484375 -0.18867187 13.671875 -0.1953125 C14.4050293 -0.20578613 15.13818359 -0.21625977 15.89355469 -0.22705078 C18.29896076 0.03222456 19.91251494 0.80774075 22 2 C22.33 1.34 22.66 0.68 23 0 C23 0.99 23 1.98 23 3 C22.01 3.495 22.01 3.495 21 4 C20.34444881 6.52733235 20.34444881 6.52733235 20 9 C19.34 8.34 18.68 7.68 18 7 C18 5.35 18 3.7 18 2 C12.06 1.67 6.12 1.34 0 1 C0 0.67 0 0.34 0 0 Z " fill="#0D1923" transform="translate(83,83)"/>
<path d="M0 0 C0.66 0 1.32 0 2 0 C5.41564154 7.4253077 6.25559335 12.9083984 5 21 C2.6718455 17.50776825 2.38158412 14.55468107 1.9375 10.5 C1.3389418 5.17857375 1.3389418 5.17857375 0 0 Z " fill="#4C535A" transform="translate(111,60)"/>
<path d="M0 0 C0 2.64 0 5.28 0 8 C-0.804375 8.268125 -1.60875 8.53625 -2.4375 8.8125 C-3.283125 9.204375 -4.12875 9.59625 -5 10 C-5.33 10.99 -5.66 11.98 -6 13 C-6.61393152 5.75560803 -6.61393152 5.75560803 -3.5625 2 C-1 0 -1 0 0 0 Z " fill="#262E3A" transform="translate(82,63)"/>
<path d="M0 0 C0.99 0.33 1.98 0.66 3 1 C3.48695652 8.42608696 3.48695652 8.42608696 1.25 11.0625 C-1.3531775 12.14715729 -2.41481845 12.01560704 -5 11 C-4.67 10.34 -4.34 9.68 -4 9 C-3.01 9.33 -2.02 9.66 -1 10 C-1.020625 8.72125 -1.04125 7.4425 -1.0625 6.125 C-1.125 2.25 -1.125 2.25 0 0 Z M1 2 C0.67 4.31 0.34 6.62 0 9 C0.66 9 1.32 9 2 9 C2 6.69 2 4.38 2 2 C1.67 2 1.34 2 1 2 Z " fill="#3A434C" transform="translate(104,116)"/>
<path d="M0 0 C1.32 0.33 2.64 0.66 4 1 C2.02 1.99 2.02 1.99 0 3 C0 3.66 0 4.32 0 5 C0.66 5.66 1.32 6.32 2 7 C1.34 7 0.68 7 0 7 C0 7.99 0 8.98 0 10 C-0.66 10 -1.32 10 -2 10 C-2.33 11.32 -2.66 12.64 -3 14 C-4.55024464 10.89951072 -4.28992015 8.42105782 -4 5 C-2 2.0625 -2 2.0625 0 0 Z " fill="#111A27" transform="translate(57,109)"/>
<path d="M0 0 C-0.33 0.66 -0.66 1.32 -1 2 C-1.66 2 -2.32 2 -3 2 C-3 4.31 -3 6.62 -3 9 C-4.98 9.66 -6.96 10.32 -9 11 C-8.690625 10.484375 -8.38125 9.96875 -8.0625 9.4375 C-6.81171983 6.8706075 -6.81171983 6.8706075 -6.5 3.3125 C-6.335 2.219375 -6.17 1.12625 -6 0 C-3.50907189 -1.24546405 -2.58919267 -0.7767578 0 0 Z " fill="#28313B" transform="translate(89,116)"/>
<path d="M0 0 C0.99 0.33 1.98 0.66 3 1 C1 3 -1 5 -3 7 C-2.34 7 -1.68 7 -1 7 C-1 8.32 -1 9.64 -1 11 C-1.99 11 -2.98 11 -4 11 C-4.66 9.68 -5.32 8.36 -6 7 C-5.34 7 -4.68 7 -4 7 C-3.896875 6.21625 -3.79375 5.4325 -3.6875 4.625 C-3 2 -3 2 0 0 Z " fill="#313A46" transform="translate(61,112)"/>
<path d="M0 0 C0.66 0.33 1.32 0.66 2 1 C2.25 3.3125 2.25 3.3125 2 6 C0.3125 7.875 0.3125 7.875 -2 9 C-4.6875 8.8125 -4.6875 8.8125 -7 8 C-7.33 7.34 -7.66 6.68 -8 6 C-7.05125 5.896875 -6.1025 5.79375 -5.125 5.6875 C-1.70892499 5.31460705 -1.70892499 5.31460705 0 2 C0 1.34 0 0.68 0 0 Z " fill="#222A37" transform="translate(95,116)"/>
<path d="M0 0 C0.33 0.99 0.66 1.98 1 3 C1.639375 2.835 2.27875 2.67 2.9375 2.5 C4.91645199 2.02025406 5.97886036 2 8 2 C8.33 2.99 8.66 3.98 9 5 C6.09399739 6.25664978 4.20395416 7 1 7 C0.67 4.69 0.34 2.38 0 0 Z " fill="#7F8792" transform="translate(100,54)"/>
<path d="M0 0 C0.99 0.66 1.98 1.32 3 2 C2.55090939 3.48199902 2.09043436 4.96055236 1.625 6.4375 C1.24214844 7.67306641 1.24214844 7.67306641 0.8515625 8.93359375 C0 11 0 11 -2 12 C-1.85831863 10.56208484 -1.71148957 9.1246763 -1.5625 7.6875 C-1.48128906 6.88699219 -1.40007813 6.08648437 -1.31640625 5.26171875 C-1 3 -1 3 0 0 Z " fill="#5E6B75" transform="translate(61,62)"/>
<path d="M0 0 C2.64 0 5.28 0 8 0 C8.33 1.65 8.66 3.3 9 5 C7.68428397 4.7452486 6.37239624 4.47065859 5.0625 4.1875 C4.33160156 4.03667969 3.60070312 3.88585937 2.84765625 3.73046875 C2.23792969 3.48941406 1.62820312 3.24835938 1 3 C0.67 2.01 0.34 1.02 0 0 Z " fill="#242D37" transform="translate(96,80)"/>
<path d="M0 0 C1.65 0.33 3.3 0.66 5 1 C5.33 2.32 5.66 3.64 6 5 C5.01 4.67 4.02 4.34 3 4 C2.34 4.66 1.68 5.32 1 6 C0.01 4.68 -0.98 3.36 -2 2 C-1.34 2 -0.68 2 0 2 C0 1.34 0 0.68 0 0 Z " fill="#41495B" transform="translate(64,89)"/>
<path d="M0 0 C3.19902639 -0.08886184 5.92677456 0.08941469 9 1 C7.68 2.65 6.36 4.3 5 6 C3.5 4.625 3.5 4.625 2 3 C2 2.34 2 1.68 2 1 C1.34 0.67 0.68 0.34 0 0 Z " fill="#1E2630" transform="translate(76,113)"/>
<path d="M0 0 C0 1.32 0 2.64 0 4 C-2.97 4 -5.94 4 -9 4 C-6.56225426 0.2214941 -6.56225426 0.2214941 -3.9375 -0.8125 C-2 -1 -2 -1 0 0 Z " fill="#4B4E57" transform="translate(70,113)"/>
<path d="M0 0 C0 1.65 0 3.3 0 5 C-1.98 5 -3.96 5 -6 5 C-6.33 4.34 -6.66 3.68 -7 3 C-6.34 3 -5.68 3 -5 3 C-4.67 2.34 -4.34 1.68 -4 1 C-2 0 -2 0 0 0 Z " fill="#222B39" transform="translate(65,125)"/>
<path d="M0 0 C0.99 0.33 1.98 0.66 3 1 C3 1.66 3 2.32 3 3 C-1.35294118 7 -1.35294118 7 -5 7 C-4.67 6.01 -4.34 5.02 -4 4 C-3.34 4 -2.68 4 -2 4 C-1.34 2.68 -0.68 1.36 0 0 Z " fill="#888D94" transform="translate(72,50)"/>
<path d="M0 0 C2.11508435 2.11508435 2.54271788 3.12543877 3.3125 5.9375 C3.61607422 6.97197266 3.61607422 6.97197266 3.92578125 8.02734375 C3.95027344 8.67832031 3.97476563 9.32929687 4 10 C3.01 10.99 2.02 11.98 1 13 C0.67 8.71 0.34 4.42 0 0 Z " fill="#535B66" transform="translate(109,65)"/>
<path d="M0 0 C2.4375 0.375 2.4375 0.375 5 1 C6.26237731 3.52475462 6.09856404 5.31200466 6.0625 8.125 C6.05347656 9.03507812 6.04445313 9.94515625 6.03515625 10.8828125 C6.02355469 11.58148438 6.01195313 12.28015625 6 13 C5.67 13 5.34 13 5 13 C4.89042969 12.31292969 4.78085938 11.62585938 4.66796875 10.91796875 C4.50941406 10.01691406 4.35085937 9.11585937 4.1875 8.1875 C4.03667969 7.29417969 3.88585937 6.40085937 3.73046875 5.48046875 C2.94604607 2.81678744 2.11372201 1.74309678 0 0 Z " fill="#181C27" transform="translate(91,65)"/>
<path d="M0 0 C2.375 0.8125 2.375 0.8125 4.375 2.8125 C0.35695309 3.65348656 -2.64303543 3.86654945 -6.625 2.8125 C-4.2650337 0.62734602 -3.28118881 -0.23437063 0 0 Z " fill="#9699A2" transform="translate(94.625,47.1875)"/>
<path d="M0 0 C0.33 0 0.66 0 1 0 C1 2.97 1 5.94 1 9 C0.01 8.67 -0.98 8.34 -2 8 C-2.125 5.125 -2.125 5.125 -2 2 C-1.34 1.34 -0.68 0.68 0 0 Z " fill="#505C69" transform="translate(61,72)"/>
<path d="M0 0 C-0.33 0.99 -0.66 1.98 -1 3 C-1.66 3 -2.32 3 -3 3 C-3.66 4.32 -4.32 5.64 -5 7 C-5.99 6.67 -6.98 6.34 -8 6 C-7.0479279 4.99403703 -6.08812654 3.99538437 -5.125 3 C-4.59132813 2.443125 -4.05765625 1.88625 -3.5078125 1.3125 C-2 0 -2 0 0 0 Z " fill="#5B636B" transform="translate(75,53)"/>
<path d="" fill="#2F2F2F" transform="translate(0,0)"/>
<path d="" fill="#555555" transform="translate(0,0)"/>
<path d="" fill="#204040" transform="translate(0,0)"/>
<path d="" fill="#2E4646" transform="translate(0,0)"/>
<path d="" fill="#33334D" transform="translate(0,0)"/>
<path d="" fill="#2B5555" transform="translate(0,0)"/>
<path d="" fill="#333333" transform="translate(0,0)"/>
<path d="" fill="#808080" transform="translate(0,0)"/>
<path d="" fill="#555555" transform="translate(0,0)"/>
</svg>
